<svg width="800" height="107" viewBox="0 0 800 107" fill="none" xmlns="http://www.w3.org/2000/svg">
<path d="M265.83 88.608V100H264.902V90.88L260.902 100H260.166L256.134 90.96L256.15 100H255.222V88.608H256.038L260.55 98.816L264.998 88.608H265.83ZM271.809 100.112C271.073 100.112 270.422 99.9413 269.857 99.6C269.302 99.2587 268.87 98.7733 268.561 98.144C268.262 97.5147 268.113 96.784 268.113 95.952C268.113 95.12 268.262 94.3893 268.561 93.76C268.87 93.1307 269.302 92.6453 269.857 92.304C270.422 91.9627 271.073 91.792 271.809 91.792C272.534 91.792 273.174 91.9627 273.729 92.304C274.284 92.6453 274.71 93.1307 275.009 93.76C275.318 94.3893 275.473 95.12 275.473 95.952C275.473 96.784 275.318 97.5147 275.009 98.144C274.71 98.7733 274.284 99.2587 273.729 99.6C273.174 99.9413 272.534 100.112 271.809 100.112ZM271.793 99.248C272.646 99.248 273.302 98.9653 273.761 98.4C274.23 97.824 274.465 97.008 274.465 95.952C274.465 94.9067 274.23 94.096 273.761 93.52C273.292 92.9333 272.641 92.64 271.809 92.64C270.966 92.64 270.31 92.9333 269.841 93.52C269.372 94.096 269.137 94.9067 269.137 95.952C269.137 97.0187 269.366 97.8347 269.825 98.4C270.284 98.9653 270.94 99.248 271.793 99.248ZM281.337 91.792C283.268 91.792 284.233 92.8267 284.233 94.896V100H283.257V94.96C283.257 94.16 283.092 93.5733 282.761 93.2C282.441 92.8267 281.935 92.64 281.241 92.64C280.441 92.64 279.796 92.8853 279.305 93.376C278.815 93.8667 278.569 94.528 278.569 95.36V100H277.609V94.208C277.609 93.376 277.567 92.6347 277.481 91.984H278.409L278.537 93.456C278.783 92.912 279.151 92.5013 279.641 92.224C280.132 91.936 280.697 91.792 281.337 91.792ZM287.371 95.872V95.92C287.371 96.9973 287.617 97.824 288.107 98.4C288.609 98.9653 289.334 99.248 290.283 99.248C291.243 99.248 292.123 98.9173 292.923 98.256L293.307 99.024C292.955 99.3547 292.507 99.6213 291.963 99.824C291.419 100.016 290.859 100.112 290.283 100.112C289.067 100.112 288.107 99.744 287.403 99.008C286.699 98.272 286.347 97.2587 286.347 95.968C286.347 95.1467 286.502 94.4213 286.811 93.792C287.131 93.152 287.574 92.6613 288.139 92.32C288.705 91.968 289.355 91.792 290.091 91.792C291.147 91.792 291.969 92.1333 292.555 92.816C293.153 93.4987 293.451 94.448 293.451 95.664V95.872H287.371ZM290.091 92.592C289.355 92.592 288.758 92.816 288.299 93.264C287.841 93.7013 287.553 94.32 287.435 95.12H292.523C292.459 94.2987 292.219 93.6747 291.803 93.248C291.387 92.8107 290.817 92.592 290.091 92.592ZM302.269 91.984L298.493 100.832C298.119 101.707 297.65 102.347 297.085 102.752C296.53 103.168 295.831 103.461 294.989 103.632L294.797 102.864C295.565 102.683 296.141 102.448 296.525 102.16C296.919 101.872 297.25 101.419 297.517 100.8L297.853 100.016L294.429 91.984H295.469L298.365 99.024L301.277 91.984H302.269ZM314.337 94.16C314.988 94.3307 315.494 94.656 315.857 95.136C316.22 95.6053 316.401 96.1973 316.401 96.912C316.401 97.904 316.076 98.6667 315.425 99.2C314.774 99.7333 313.852 100 312.657 100H308.097V88.608H312.497C313.66 88.608 314.556 88.8693 315.185 89.392C315.814 89.904 316.129 90.64 316.129 91.6C316.129 92.2187 315.969 92.7467 315.649 93.184C315.34 93.6213 314.902 93.9467 314.337 94.16ZM309.073 93.776H312.353C313.27 93.776 313.964 93.5893 314.433 93.216C314.902 92.8427 315.137 92.2987 315.137 91.584C315.137 90.1653 314.209 89.456 312.353 89.456H309.073V93.776ZM312.593 99.152C313.553 99.152 314.257 98.9707 314.705 98.608C315.164 98.2453 315.393 97.6907 315.393 96.944C315.393 95.4187 314.46 94.656 312.593 94.656H309.073V99.152H312.593ZM325.566 91.984V100H324.59V98.464C324.355 98.9973 323.998 99.408 323.518 99.696C323.048 99.9733 322.483 100.112 321.822 100.112C321.107 100.112 320.478 99.9467 319.934 99.616C319.4 99.2747 318.984 98.7947 318.686 98.176C318.398 97.5467 318.254 96.816 318.254 95.984C318.254 95.152 318.403 94.4213 318.702 93.792C319 93.152 319.416 92.6613 319.95 92.32C320.494 91.968 321.118 91.792 321.822 91.792C322.472 91.792 323.032 91.9307 323.502 92.208C323.982 92.4853 324.344 92.8907 324.59 93.424V91.984H325.566ZM321.966 99.248C322.798 99.248 323.443 98.96 323.902 98.384C324.36 97.808 324.59 96.9973 324.59 95.952C324.59 94.896 324.36 94.08 323.902 93.504C323.443 92.928 322.792 92.64 321.95 92.64C321.107 92.64 320.451 92.9387 319.982 93.536C319.512 94.1227 319.278 94.9387 319.278 95.984C319.278 97.0187 319.512 97.824 319.982 98.4C320.451 98.9653 321.112 99.248 321.966 99.248ZM331.467 100.112C330.709 100.112 330.048 99.9413 329.483 99.6C328.917 99.2587 328.48 98.7787 328.171 98.16C327.861 97.5307 327.707 96.8053 327.707 95.984C327.707 95.152 327.861 94.4213 328.171 93.792C328.48 93.152 328.923 92.6613 329.499 92.32C330.075 91.968 330.741 91.792 331.499 91.792C332.043 91.792 332.56 91.888 333.051 92.08C333.552 92.2613 333.963 92.5173 334.283 92.848L333.899 93.616C333.483 93.2747 333.083 93.0293 332.699 92.88C332.325 92.72 331.936 92.64 331.531 92.64C330.667 92.64 329.984 92.9387 329.483 93.536C328.981 94.1227 328.731 94.9387 328.731 95.984C328.731 97.008 328.976 97.808 329.467 98.384C329.968 98.96 330.656 99.248 331.531 99.248C331.936 99.248 332.325 99.1733 332.699 99.024C333.083 98.864 333.483 98.6187 333.899 98.288L334.283 99.04C333.941 99.3707 333.515 99.632 333.003 99.824C332.501 100.016 331.989 100.112 331.467 100.112ZM341.438 100L337.022 96.096V100H336.062V88.224H337.022V95.712L341.054 91.984H342.318L338.126 95.84L342.766 100H341.438ZM357.053 94.16V99.36C356.637 99.584 356.067 99.7707 355.341 99.92C354.616 100.059 353.885 100.128 353.149 100.128C352.04 100.128 351.085 99.8987 350.285 99.44C349.485 98.9707 348.872 98.2987 348.445 97.424C348.029 96.5493 347.821 95.504 347.821 94.288C347.821 93.0827 348.029 92.0427 348.445 91.168C348.872 90.2933 349.48 89.6267 350.269 89.168C351.059 88.7093 351.992 88.48 353.069 88.48C354.68 88.48 355.971 88.976 356.941 89.968L356.525 90.752C355.981 90.2613 355.432 89.9093 354.877 89.696C354.333 89.472 353.725 89.36 353.053 89.36C351.709 89.36 350.669 89.7867 349.933 90.64C349.208 91.4933 348.845 92.7093 348.845 94.288C348.845 95.8987 349.213 97.1307 349.949 97.984C350.696 98.8373 351.768 99.264 353.165 99.264C354.243 99.264 355.24 99.088 356.157 98.736V95.008H353.149V94.16H357.053ZM366.167 91.984V100H365.223V98.544C364.967 99.056 364.604 99.4453 364.135 99.712C363.665 99.9787 363.127 100.112 362.519 100.112C361.58 100.112 360.871 99.8507 360.391 99.328C359.911 98.8053 359.671 98.032 359.671 97.008V91.984H360.631V96.944C360.631 97.7333 360.791 98.3147 361.111 98.688C361.431 99.0613 361.927 99.248 362.599 99.248C363.388 99.248 364.017 99.0027 364.487 98.512C364.956 98.0107 365.191 97.3493 365.191 96.528V91.984H366.167ZM375.628 91.984V100H374.652V98.464C374.417 98.9973 374.06 99.408 373.58 99.696C373.111 99.9733 372.545 100.112 371.884 100.112C371.169 100.112 370.54 99.9467 369.996 99.616C369.463 99.2747 369.047 98.7947 368.748 98.176C368.46 97.5467 368.316 96.816 368.316 95.984C368.316 95.152 368.465 94.4213 368.764 93.792C369.063 93.152 369.479 92.6613 370.012 92.32C370.556 91.968 371.18 91.792 371.884 91.792C372.535 91.792 373.095 91.9307 373.564 92.208C374.044 92.4853 374.407 92.8907 374.652 93.424V91.984H375.628ZM372.028 99.248C372.86 99.248 373.505 98.96 373.964 98.384C374.423 97.808 374.652 96.9973 374.652 95.952C374.652 94.896 374.423 94.08 373.964 93.504C373.505 92.928 372.855 92.64 372.012 92.64C371.169 92.64 370.513 92.9387 370.044 93.536C369.575 94.1227 369.34 94.9387 369.34 95.984C369.34 97.0187 369.575 97.824 370.044 98.4C370.513 98.9653 371.175 99.248 372.028 99.248ZM381.737 91.792C382.004 91.792 382.238 91.8133 382.441 91.856L382.393 92.736C382.19 92.6933 381.945 92.672 381.657 92.672C380.846 92.672 380.238 92.9333 379.833 93.456C379.438 93.968 379.241 94.5813 379.241 95.296V100H378.281V94.208C378.281 93.376 378.238 92.6347 378.153 91.984H379.081L379.209 93.472C379.412 92.928 379.737 92.512 380.185 92.224C380.644 91.936 381.161 91.792 381.737 91.792ZM390.503 91.984V100H389.527V98.464C389.292 98.9973 388.935 99.408 388.455 99.696C387.986 99.9733 387.42 100.112 386.759 100.112C386.044 100.112 385.415 99.9467 384.871 99.616C384.338 99.2747 383.922 98.7947 383.623 98.176C383.335 97.5467 383.191 96.816 383.191 95.984C383.191 95.152 383.34 94.4213 383.639 93.792C383.938 93.152 384.354 92.6613 384.887 92.32C385.431 91.968 386.055 91.792 386.759 91.792C387.41 91.792 387.97 91.9307 388.439 92.208C388.919 92.4853 389.282 92.8907 389.527 93.424V91.984H390.503ZM386.903 99.248C387.735 99.248 388.38 98.96 388.839 98.384C389.298 97.808 389.527 96.9973 389.527 95.952C389.527 94.896 389.298 94.08 388.839 93.504C388.38 92.928 387.73 92.64 386.887 92.64C386.044 92.64 385.388 92.9387 384.919 93.536C384.45 94.1227 384.215 94.9387 384.215 95.984C384.215 97.0187 384.45 97.824 384.919 98.4C385.388 98.9653 386.05 99.248 386.903 99.248ZM396.884 91.792C398.815 91.792 399.78 92.8267 399.78 94.896V100H398.804V94.96C398.804 94.16 398.639 93.5733 398.308 93.2C397.988 92.8267 397.481 92.64 396.788 92.64C395.988 92.64 395.343 92.8853 394.852 93.376C394.361 93.8667 394.116 94.528 394.116 95.36V100H393.156V94.208C393.156 93.376 393.113 92.6347 393.028 91.984H393.956L394.084 93.456C394.329 92.912 394.697 92.5013 395.188 92.224C395.679 91.936 396.244 91.792 396.884 91.792ZM403.766 92.768V97.536C403.766 98.176 403.889 98.6187 404.134 98.864C404.379 99.1093 404.742 99.232 405.222 99.232C405.521 99.232 405.809 99.184 406.086 99.088V99.968C405.745 100.053 405.398 100.096 405.046 100.096C404.342 100.096 403.787 99.8987 403.382 99.504C402.987 99.1093 402.79 98.5173 402.79 97.728V92.768H401.206V91.984H402.79V89.856L403.766 89.488V91.984H406.134V92.768H403.766ZM408.309 95.872V95.92C408.309 96.9973 408.554 97.824 409.045 98.4C409.546 98.9653 410.271 99.248 411.221 99.248C412.181 99.248 413.061 98.9173 413.861 98.256L414.245 99.024C413.893 99.3547 413.445 99.6213 412.901 99.824C412.357 100.016 411.797 100.112 411.221 100.112C410.005 100.112 409.045 99.744 408.341 99.008C407.637 98.272 407.285 97.2587 407.285 95.968C407.285 95.1467 407.439 94.4213 407.749 93.792C408.069 93.152 408.511 92.6613 409.077 92.32C409.642 91.968 410.293 91.792 411.029 91.792C412.085 91.792 412.906 92.1333 413.493 92.816C414.09 93.4987 414.389 94.448 414.389 95.664V95.872H408.309ZM411.029 92.592C410.293 92.592 409.695 92.816 409.237 93.264C408.778 93.7013 408.49 94.32 408.373 95.12H413.461C413.397 94.2987 413.157 93.6747 412.741 93.248C412.325 92.8107 411.754 92.592 411.029 92.592ZM416.996 95.872V95.92C416.996 96.9973 417.242 97.824 417.732 98.4C418.234 98.9653 418.959 99.248 419.908 99.248C420.868 99.248 421.748 98.9173 422.548 98.256L422.932 99.024C422.58 99.3547 422.132 99.6213 421.588 99.824C421.044 100.016 420.484 100.112 419.908 100.112C418.692 100.112 417.732 99.744 417.028 99.008C416.324 98.272 415.972 97.2587 415.972 95.968C415.972 95.1467 416.127 94.4213 416.436 93.792C416.756 93.152 417.199 92.6613 417.764 92.32C418.33 91.968 418.98 91.792 419.716 91.792C420.772 91.792 421.594 92.1333 422.18 92.816C422.778 93.4987 423.076 94.448 423.076 95.664V95.872H416.996ZM419.716 92.592C418.98 92.592 418.383 92.816 417.924 93.264C417.466 93.7013 417.178 94.32 417.06 95.12H422.148C422.084 94.2987 421.844 93.6747 421.428 93.248C421.012 92.8107 420.442 92.592 419.716 92.592ZM426.308 98.608V99.632C426.308 100.037 426.244 100.411 426.116 100.752C425.988 101.093 425.774 101.413 425.476 101.712L424.964 101.312C425.326 100.907 425.529 100.469 425.572 100H424.948V98.608H426.308ZM437.677 100.128C436.621 100.128 435.703 99.8987 434.925 99.44C434.146 98.9707 433.549 98.2987 433.133 97.424C432.717 96.5387 432.509 95.4933 432.509 94.288C432.509 93.0933 432.717 92.0587 433.133 91.184C433.549 90.3093 434.146 89.6427 434.925 89.184C435.703 88.7147 436.621 88.48 437.677 88.48C438.466 88.48 439.186 88.608 439.837 88.864C440.498 89.1093 441.069 89.4773 441.549 89.968L441.133 90.752C440.589 90.2613 440.045 89.9093 439.501 89.696C438.957 89.472 438.349 89.36 437.677 89.36C436.365 89.36 435.346 89.792 434.621 90.656C433.895 91.5093 433.533 92.72 433.533 94.288C433.533 95.8667 433.89 97.088 434.605 97.952C435.33 98.816 436.354 99.248 437.677 99.248C438.349 99.248 438.957 99.1413 439.501 98.928C440.045 98.704 440.589 98.3467 441.133 97.856L441.549 98.64C441.069 99.1307 440.498 99.504 439.837 99.76C439.186 100.005 438.466 100.128 437.677 100.128ZM450.378 91.984V100H449.402V98.464C449.167 98.9973 448.81 99.408 448.33 99.696C447.861 99.9733 447.295 100.112 446.634 100.112C445.919 100.112 445.29 99.9467 444.746 99.616C444.213 99.2747 443.797 98.7947 443.498 98.176C443.21 97.5467 443.066 96.816 443.066 95.984C443.066 95.152 443.215 94.4213 443.514 93.792C443.813 93.152 444.229 92.6613 444.762 92.32C445.306 91.968 445.93 91.792 446.634 91.792C447.285 91.792 447.845 91.9307 448.314 92.208C448.794 92.4853 449.157 92.8907 449.402 93.424V91.984H450.378ZM446.778 99.248C447.61 99.248 448.255 98.96 448.714 98.384C449.173 97.808 449.402 96.9973 449.402 95.952C449.402 94.896 449.173 94.08 448.714 93.504C448.255 92.928 447.605 92.64 446.762 92.64C445.919 92.64 445.263 92.9387 444.794 93.536C444.325 94.1227 444.09 94.9387 444.09 95.984C444.09 97.0187 444.325 97.824 444.794 98.4C445.263 98.9653 445.925 99.248 446.778 99.248ZM456.759 91.792C458.69 91.792 459.655 92.8267 459.655 94.896V100H458.679V94.96C458.679 94.16 458.514 93.5733 458.183 93.2C457.863 92.8267 457.356 92.64 456.663 92.64C455.863 92.64 455.218 92.8853 454.727 93.376C454.236 93.8667 453.991 94.528 453.991 95.36V100H453.031V94.208C453.031 93.376 452.988 92.6347 452.903 91.984H453.831L453.959 93.456C454.204 92.912 454.572 92.5013 455.063 92.224C455.554 91.936 456.119 91.792 456.759 91.792ZM465.529 100.112C464.772 100.112 464.11 99.9413 463.545 99.6C462.98 99.2587 462.542 98.7787 462.233 98.16C461.924 97.5307 461.769 96.8053 461.769 95.984C461.769 95.152 461.924 94.4213 462.233 93.792C462.542 93.152 462.985 92.6613 463.561 92.32C464.137 91.968 464.804 91.792 465.561 91.792C466.105 91.792 466.622 91.888 467.113 92.08C467.614 92.2613 468.025 92.5173 468.345 92.848L467.961 93.616C467.545 93.2747 467.145 93.0293 466.761 92.88C466.388 92.72 465.998 92.64 465.593 92.64C464.729 92.64 464.046 92.9387 463.545 93.536C463.044 94.1227 462.793 94.9387 462.793 95.984C462.793 97.008 463.038 97.808 463.529 98.384C464.03 98.96 464.718 99.248 465.593 99.248C465.998 99.248 466.388 99.1733 466.761 99.024C467.145 98.864 467.545 98.6187 467.961 98.288L468.345 99.04C468.004 99.3707 467.577 99.632 467.065 99.824C466.564 100.016 466.052 100.112 465.529 100.112ZM470.637 95.872V95.92C470.637 96.9973 470.882 97.824 471.373 98.4C471.874 98.9653 472.6 99.248 473.549 99.248C474.509 99.248 475.389 98.9173 476.189 98.256L476.573 99.024C476.221 99.3547 475.773 99.6213 475.229 99.824C474.685 100.016 474.125 100.112 473.549 100.112C472.333 100.112 471.373 99.744 470.669 99.008C469.965 98.272 469.613 97.2587 469.613 95.968C469.613 95.1467 469.768 94.4213 470.077 93.792C470.397 93.152 470.84 92.6613 471.405 92.32C471.97 91.968 472.621 91.792 473.357 91.792C474.413 91.792 475.234 92.1333 475.821 92.816C476.418 93.4987 476.717 94.448 476.717 95.664V95.872H470.637ZM473.357 92.592C472.621 92.592 472.024 92.816 471.565 93.264C471.106 93.7013 470.818 94.32 470.701 95.12H475.789C475.725 94.2987 475.485 93.6747 475.069 93.248C474.653 92.8107 474.082 92.592 473.357 92.592ZM478.812 88.224H479.772V100H478.812V88.224ZM494.099 96.96H487.955L486.643 100H485.619L490.579 88.608H491.475L496.419 100H495.395L494.099 96.96ZM493.715 96.096L491.027 89.808L488.323 96.096H493.715ZM501.884 91.792C503.815 91.792 504.78 92.8267 504.78 94.896V100H503.804V94.96C503.804 94.16 503.639 93.5733 503.308 93.2C502.988 92.8267 502.481 92.64 501.788 92.64C500.988 92.64 500.343 92.8853 499.852 93.376C499.361 93.8667 499.116 94.528 499.116 95.36V100H498.156V94.208C498.156 93.376 498.113 92.6347 498.028 91.984H498.956L499.084 93.456C499.329 92.912 499.697 92.5013 500.188 92.224C500.679 91.936 501.244 91.792 501.884 91.792ZM514.206 91.984L510.43 100.832C510.057 101.707 509.587 102.347 509.022 102.752C508.467 103.168 507.769 103.461 506.926 103.632L506.734 102.864C507.502 102.683 508.078 102.448 508.462 102.16C508.857 101.872 509.187 101.419 509.454 100.8L509.79 100.016L506.366 91.984H507.406L510.302 99.024L513.214 91.984H514.206ZM517.329 92.768V97.536C517.329 98.176 517.451 98.6187 517.697 98.864C517.942 99.1093 518.305 99.232 518.785 99.232C519.083 99.232 519.371 99.184 519.649 99.088V99.968C519.307 100.053 518.961 100.096 518.609 100.096C517.905 100.096 517.35 99.8987 516.945 99.504C516.55 99.1093 516.353 98.5173 516.353 97.728V92.768H514.769V91.984H516.353V89.856L517.329 89.488V91.984H519.697V92.768H517.329ZM521.359 91.984H522.319V100H521.359V91.984ZM522.511 88.672V89.92H521.215V88.672H522.511ZM533.64 91.792C535.411 91.792 536.296 92.8267 536.296 94.896V100H535.32V94.96C535.32 94.1493 535.176 93.5627 534.888 93.2C534.6 92.8267 534.141 92.64 533.512 92.64C532.776 92.64 532.195 92.8853 531.768 93.376C531.352 93.8667 531.144 94.5333 531.144 95.376V100H530.168V94.96C530.168 94.1493 530.019 93.5627 529.72 93.2C529.432 92.8267 528.973 92.64 528.344 92.64C527.619 92.64 527.037 92.8853 526.6 93.376C526.173 93.8667 525.96 94.5333 525.96 95.376V100H525V94.208C525 93.376 524.957 92.6347 524.872 91.984H525.8L525.928 93.424C526.152 92.8907 526.483 92.4853 526.92 92.208C527.368 91.9307 527.885 91.792 528.472 91.792C529.763 91.792 530.589 92.3147 530.952 93.36C531.176 92.8693 531.523 92.4853 531.992 92.208C532.472 91.9307 533.021 91.792 533.64 91.792ZM539.418 95.872V95.92C539.418 96.9973 539.663 97.824 540.154 98.4C540.655 98.9653 541.381 99.248 542.33 99.248C543.29 99.248 544.17 98.9173 544.97 98.256L545.354 99.024C545.002 99.3547 544.554 99.6213 544.01 99.824C543.466 100.016 542.906 100.112 542.33 100.112C541.114 100.112 540.154 99.744 539.45 99.008C538.746 98.272 538.394 97.2587 538.394 95.968C538.394 95.1467 538.549 94.4213 538.858 93.792C539.178 93.152 539.621 92.6613 540.186 92.32C540.751 91.968 541.402 91.792 542.138 91.792C543.194 91.792 544.015 92.1333 544.602 92.816C545.199 93.4987 545.498 94.448 545.498 95.664V95.872H539.418ZM542.138 92.592C541.402 92.592 540.805 92.816 540.346 93.264C539.887 93.7013 539.599 94.32 539.482 95.12H544.57C544.506 94.2987 544.266 93.6747 543.85 93.248C543.434 92.8107 542.863 92.592 542.138 92.592Z" fill="#62718D"/>
<g filter="url(#filter0_d)">
<rect x="244" y="6" width="312" height="58" rx="5" fill="#1A64F2"/>
<rect x="244.5" y="6.5" width="311" height="57" rx="4.5" stroke="#1C51B7"/>
</g>
<path d="M306.961 33.07V39.226C306.373 39.514 305.665 39.742 304.837 39.91C304.009 40.078 303.163 40.162 302.299 40.162C300.979 40.162 299.833 39.898 298.861 39.37C297.889 38.842 297.145 38.086 296.629 37.102C296.113 36.118 295.855 34.942 295.855 33.574C295.855 32.23 296.113 31.066 296.629 30.082C297.145 29.098 297.877 28.342 298.825 27.814C299.785 27.286 300.907 27.022 302.191 27.022C303.091 27.022 303.931 27.154 304.711 27.418C305.503 27.682 306.163 28.054 306.691 28.534L305.899 30.226C305.299 29.758 304.711 29.422 304.135 29.218C303.559 29.014 302.929 28.912 302.245 28.912C300.925 28.912 299.923 29.308 299.239 30.1C298.567 30.892 298.231 32.05 298.231 33.574C298.231 35.146 298.579 36.334 299.275 37.138C299.971 37.93 301.009 38.326 302.389 38.326C303.229 38.326 304.057 38.212 304.873 37.984V34.744H302.101V33.07H306.961ZM317.369 35.572H311.105C311.153 36.544 311.393 37.264 311.825 37.732C312.269 38.188 312.923 38.416 313.787 38.416C314.783 38.416 315.707 38.092 316.559 37.444L317.207 38.992C316.775 39.34 316.241 39.622 315.605 39.838C314.981 40.042 314.345 40.144 313.697 40.144C312.209 40.144 311.039 39.724 310.187 38.884C309.335 38.044 308.909 36.892 308.909 35.428C308.909 34.504 309.095 33.682 309.467 32.962C309.839 32.242 310.361 31.684 311.033 31.288C311.705 30.88 312.467 30.676 313.319 30.676C314.567 30.676 315.551 31.084 316.271 31.9C317.003 32.704 317.369 33.814 317.369 35.23V35.572ZM313.373 32.296C312.773 32.296 312.281 32.476 311.897 32.836C311.525 33.184 311.285 33.694 311.177 34.366H315.407C315.335 33.682 315.125 33.166 314.777 32.818C314.441 32.47 313.973 32.296 313.373 32.296ZM322.014 32.602V36.67C322.014 37.738 322.512 38.272 323.508 38.272C323.784 38.272 324.084 38.224 324.408 38.128V39.91C324.012 40.054 323.532 40.126 322.968 40.126C321.936 40.126 321.144 39.838 320.592 39.262C320.04 38.686 319.764 37.858 319.764 36.778V32.602H318.018V30.91H319.764V28.696L322.014 27.94V30.91H324.426V32.602H322.014ZM335.412 40.162C334.428 40.162 333.504 40.03 332.64 39.766C331.788 39.502 331.062 39.124 330.462 38.632L331.254 36.94C331.878 37.408 332.526 37.756 333.198 37.984C333.882 38.2 334.626 38.308 335.43 38.308C336.318 38.308 337.002 38.152 337.482 37.84C337.974 37.528 338.22 37.09 338.22 36.526C338.22 36.046 337.992 35.68 337.536 35.428C337.092 35.164 336.354 34.918 335.322 34.69C333.714 34.342 332.544 33.892 331.812 33.34C331.08 32.788 330.714 31.984 330.714 30.928C330.714 30.172 330.918 29.5 331.326 28.912C331.734 28.324 332.31 27.862 333.054 27.526C333.81 27.19 334.68 27.022 335.664 27.022C336.564 27.022 337.416 27.16 338.22 27.436C339.036 27.7 339.702 28.072 340.218 28.552L339.444 30.244C338.304 29.332 337.044 28.876 335.664 28.876C334.836 28.876 334.182 29.05 333.702 29.398C333.222 29.734 332.982 30.196 332.982 30.784C332.982 31.288 333.192 31.672 333.612 31.936C334.044 32.2 334.776 32.446 335.808 32.674C336.876 32.926 337.746 33.202 338.418 33.502C339.09 33.79 339.606 34.168 339.966 34.636C340.326 35.092 340.506 35.668 340.506 36.364C340.506 37.132 340.302 37.804 339.894 38.38C339.486 38.944 338.898 39.382 338.13 39.694C337.362 40.006 336.456 40.162 335.412 40.162ZM345.234 32.602V36.67C345.234 37.738 345.732 38.272 346.728 38.272C347.004 38.272 347.304 38.224 347.628 38.128V39.91C347.232 40.054 346.752 40.126 346.188 40.126C345.156 40.126 344.364 39.838 343.812 39.262C343.26 38.686 342.984 37.858 342.984 36.778V32.602H341.238V30.91H342.984V28.696L345.234 27.94V30.91H347.646V32.602H345.234ZM357.887 30.91V40H355.673V38.542C355.397 39.046 355.001 39.442 354.485 39.73C353.969 40.006 353.381 40.144 352.721 40.144C351.929 40.144 351.227 39.952 350.615 39.568C350.003 39.184 349.529 38.638 349.193 37.93C348.857 37.222 348.689 36.4 348.689 35.464C348.689 34.528 348.857 33.7 349.193 32.98C349.541 32.248 350.021 31.684 350.633 31.288C351.245 30.88 351.941 30.676 352.721 30.676C353.381 30.676 353.969 30.82 354.485 31.108C355.001 31.384 355.397 31.774 355.673 32.278V30.91H357.887ZM353.333 38.38C354.077 38.38 354.653 38.122 355.061 37.606C355.469 37.09 355.673 36.364 355.673 35.428C355.673 34.468 355.469 33.73 355.061 33.214C354.653 32.698 354.071 32.44 353.315 32.44C352.571 32.44 351.989 32.71 351.569 33.25C351.161 33.778 350.957 34.516 350.957 35.464C350.957 36.4 351.161 37.12 351.569 37.624C351.989 38.128 352.577 38.38 353.333 38.38ZM365.233 30.694C365.581 30.694 365.881 30.742 366.133 30.838L366.115 32.89C365.731 32.734 365.335 32.656 364.927 32.656C364.159 32.656 363.571 32.878 363.163 33.322C362.767 33.766 362.569 34.354 362.569 35.086V40H360.337V33.484C360.337 32.524 360.289 31.666 360.193 30.91H362.299L362.479 32.512C362.707 31.924 363.067 31.474 363.559 31.162C364.051 30.85 364.609 30.694 365.233 30.694ZM371.074 32.602V36.67C371.074 37.738 371.572 38.272 372.568 38.272C372.844 38.272 373.144 38.224 373.468 38.128V39.91C373.072 40.054 372.592 40.126 372.028 40.126C370.996 40.126 370.204 39.838 369.652 39.262C369.1 38.686 368.824 37.858 368.824 36.778V32.602H367.078V30.91H368.824V28.696L371.074 27.94V30.91H373.486V32.602H371.074ZM382.989 35.572H376.725C376.773 36.544 377.013 37.264 377.445 37.732C377.889 38.188 378.543 38.416 379.407 38.416C380.403 38.416 381.327 38.092 382.179 37.444L382.827 38.992C382.395 39.34 381.861 39.622 381.225 39.838C380.601 40.042 379.965 40.144 379.317 40.144C377.829 40.144 376.659 39.724 375.807 38.884C374.955 38.044 374.529 36.892 374.529 35.428C374.529 34.504 374.715 33.682 375.087 32.962C375.459 32.242 375.981 31.684 376.653 31.288C377.325 30.88 378.087 30.676 378.939 30.676C380.187 30.676 381.171 31.084 381.891 31.9C382.623 32.704 382.989 33.814 382.989 35.23V35.572ZM378.993 32.296C378.393 32.296 377.901 32.476 377.517 32.836C377.145 33.184 376.905 33.694 376.797 34.366H381.027C380.955 33.682 380.745 33.166 380.397 32.818C380.061 32.47 379.593 32.296 378.993 32.296ZM393.588 26.752V40H391.374V38.542C391.098 39.046 390.702 39.442 390.186 39.73C389.67 40.006 389.082 40.144 388.422 40.144C387.642 40.144 386.946 39.946 386.334 39.55C385.722 39.154 385.242 38.596 384.894 37.876C384.558 37.144 384.39 36.31 384.39 35.374C384.39 34.438 384.558 33.616 384.894 32.908C385.23 32.2 385.704 31.654 386.316 31.27C386.928 30.874 387.63 30.676 388.422 30.676C389.07 30.676 389.646 30.814 390.15 31.09C390.666 31.354 391.062 31.732 391.338 32.224V26.752H393.588ZM389.016 38.38C389.76 38.38 390.336 38.122 390.744 37.606C391.164 37.09 391.374 36.358 391.374 35.41C391.374 34.462 391.17 33.73 390.762 33.214C390.354 32.698 389.778 32.44 389.034 32.44C388.278 32.44 387.69 32.698 387.27 33.214C386.862 33.718 386.658 34.438 386.658 35.374C386.658 36.322 386.862 37.06 387.27 37.588C387.69 38.116 388.272 38.38 389.016 38.38ZM400.996 34.24H406.414V36.04H400.996V34.24ZM422.828 36.382C422.828 37.354 422.486 38.176 421.802 38.848C421.13 39.508 420.224 39.922 419.084 40.09V42.088H417.248V40.126C416.444 40.066 415.694 39.91 414.998 39.658C414.314 39.406 413.714 39.064 413.198 38.632L413.99 36.94C415.034 37.756 416.162 38.206 417.374 38.29V34.546C416.57 34.342 415.892 34.12 415.34 33.88C414.788 33.628 414.326 33.262 413.954 32.782C413.582 32.29 413.396 31.654 413.396 30.874C413.396 30.226 413.558 29.638 413.882 29.11C414.206 28.57 414.656 28.126 415.232 27.778C415.82 27.418 416.492 27.19 417.248 27.094V25.096H419.084V27.076C419.78 27.16 420.434 27.328 421.046 27.58C421.658 27.832 422.174 28.15 422.594 28.534L421.802 30.226C420.926 29.506 419.978 29.074 418.958 28.93V32.836C419.762 33.04 420.428 33.262 420.956 33.502C421.484 33.73 421.928 34.078 422.288 34.546C422.648 35.014 422.828 35.626 422.828 36.382ZM415.718 30.748C415.718 31.168 415.862 31.51 416.15 31.774C416.438 32.026 416.846 32.242 417.374 32.422V28.948C416.858 29.056 416.45 29.266 416.15 29.578C415.862 29.89 415.718 30.28 415.718 30.748ZM418.958 38.2C419.462 38.092 419.846 37.894 420.11 37.606C420.374 37.306 420.506 36.922 420.506 36.454C420.506 36.082 420.374 35.782 420.11 35.554C419.846 35.326 419.462 35.134 418.958 34.978V38.2ZM433.261 38.11V40H424.657V38.29L429.013 33.592C429.529 33.028 429.907 32.512 430.147 32.044C430.387 31.576 430.507 31.114 430.507 30.658C430.507 30.07 430.333 29.626 429.985 29.326C429.649 29.026 429.163 28.876 428.527 28.876C427.399 28.876 426.241 29.32 425.053 30.208L424.279 28.516C424.783 28.06 425.431 27.7 426.223 27.436C427.015 27.16 427.813 27.022 428.617 27.022C429.901 27.022 430.915 27.34 431.659 27.976C432.415 28.6 432.793 29.446 432.793 30.514C432.793 31.246 432.631 31.936 432.307 32.584C431.995 33.232 431.467 33.958 430.723 34.762L427.573 38.11H433.261ZM440.273 31.81C441.077 31.81 441.785 31.984 442.397 32.332C443.009 32.668 443.483 33.148 443.819 33.772C444.155 34.384 444.323 35.092 444.323 35.896C444.323 36.736 444.131 37.48 443.747 38.128C443.363 38.764 442.811 39.262 442.091 39.622C441.371 39.97 440.537 40.144 439.589 40.144C438.785 40.144 437.993 40.012 437.213 39.748C436.433 39.472 435.791 39.106 435.287 38.65L436.061 36.958C437.225 37.846 438.413 38.29 439.625 38.29C440.429 38.29 441.041 38.092 441.461 37.696C441.893 37.288 442.109 36.712 442.109 35.968C442.109 35.26 441.887 34.696 441.443 34.276C441.011 33.844 440.429 33.628 439.697 33.628C439.193 33.628 438.719 33.724 438.275 33.916C437.831 34.096 437.441 34.366 437.105 34.726H435.701V27.184H443.729V28.984H437.969V32.476C438.617 32.032 439.385 31.81 440.273 31.81ZM444.532 41.062L449.194 26.446H451.12L446.422 41.062H444.532ZM464.538 27.184V40H462.486V32.044L459.084 40H457.554L454.134 32.134V40H452.082V27.184H453.918L458.328 37.21L462.702 27.184H464.538ZM471.299 40.144C470.375 40.144 469.559 39.952 468.851 39.568C468.155 39.184 467.615 38.638 467.231 37.93C466.859 37.21 466.673 36.37 466.673 35.41C466.673 34.45 466.859 33.616 467.231 32.908C467.615 32.188 468.155 31.636 468.851 31.252C469.559 30.868 470.375 30.676 471.299 30.676C472.211 30.676 473.015 30.868 473.711 31.252C474.407 31.636 474.941 32.188 475.313 32.908C475.697 33.616 475.889 34.45 475.889 35.41C475.889 36.37 475.697 37.21 475.313 37.93C474.941 38.638 474.407 39.184 473.711 39.568C473.015 39.952 472.211 40.144 471.299 40.144ZM471.281 38.38C472.049 38.38 472.631 38.134 473.027 37.642C473.435 37.138 473.639 36.394 473.639 35.41C473.639 34.438 473.435 33.7 473.027 33.196C472.619 32.68 472.043 32.422 471.299 32.422C470.543 32.422 469.961 32.68 469.553 33.196C469.145 33.7 468.941 34.438 468.941 35.41C468.941 36.394 469.139 37.138 469.535 37.642C469.943 38.134 470.525 38.38 471.281 38.38ZM483.031 30.676C485.203 30.676 486.289 31.924 486.289 34.42V40H484.039V34.528C484.039 33.808 483.901 33.286 483.625 32.962C483.349 32.626 482.923 32.458 482.347 32.458C481.663 32.458 481.111 32.68 480.691 33.124C480.271 33.556 480.061 34.132 480.061 34.852V40H477.829V33.484C477.829 32.524 477.781 31.666 477.685 30.91H479.791L479.953 32.404C480.265 31.852 480.685 31.426 481.213 31.126C481.753 30.826 482.359 30.676 483.031 30.676ZM491.537 32.602V36.67C491.537 37.738 492.035 38.272 493.031 38.272C493.307 38.272 493.607 38.224 493.931 38.128V39.91C493.535 40.054 493.055 40.126 492.491 40.126C491.459 40.126 490.667 39.838 490.115 39.262C489.563 38.686 489.287 37.858 489.287 36.778V32.602H487.541V30.91H489.287V28.696L491.537 27.94V30.91H493.949V32.602H491.537ZM500.697 30.676C502.869 30.676 503.955 31.924 503.955 34.42V40H501.705V34.528C501.705 33.808 501.567 33.286 501.291 32.962C501.015 32.626 500.589 32.458 500.013 32.458C499.329 32.458 498.777 32.68 498.357 33.124C497.937 33.556 497.727 34.132 497.727 34.852V40H495.495V26.752H497.727V32.224C498.039 31.732 498.453 31.354 498.969 31.09C499.485 30.814 500.061 30.676 500.697 30.676Z" fill="white"/>
<defs>
<filter id="filter0_d" x="236" y="0" width="328" height="74" filterUnits="userSpaceOnUse" color-interpolation-filters="sRGB">
<feFlood flood-opacity="0" result="BackgroundImageFix"/>
<feColorMatrix in="SourceAlpha" type="matrix" values="0 0 0 0 0 0 0 0 0 0 0 0 0 0 0 0 0 0 127 0"/>
<feOffset dy="2"/>
<feGaussianBlur stdDeviation="4"/>
<feColorMatrix type="matrix" values="0 0 0 0 0 0 0 0 0 0 0 0 0 0 0 0 0 0 0.06 0"/>
<feBlend mode="normal" in2="BackgroundImageFix" result="effect1_dropShadow"/>
<feBlend mode="normal" in="SourceGraphic" in2="effect1_dropShadow" result="shape"/>
</filter>
</defs>
</svg>
