<svg xmlns="http://www.w3.org/2000/svg" width="138.268298431826" height="47.609756475778" fill="none"><rect id="backgroundrect" width="100%" height="100%" x="0" y="0" fill="none" stroke="none" class="selected" style=""/>

<defs>
<filter id="filter0_d" x="1295" y="0" width="164" height="56" filterUnits="userSpaceOnUse" color-interpolation-filters="sRGB">
<feFlood flood-opacity="0" result="BackgroundImageFix"/>
<feColorMatrix in="SourceAlpha" type="matrix" values="0 0 0 0 0 0 0 0 0 0 0 0 0 0 0 0 0 0 127 0"/>
<feOffset dy="2"/>
<feGaussianBlur stdDeviation="4"/>
<feColorMatrix type="matrix" values="0 0 0 0 0 0 0 0 0 0 0 0 0 0 0 0 0 0 0.06 0"/>
<feBlend mode="normal" in2="BackgroundImageFix" result="effect1_dropShadow"/>
<feBlend mode="normal" in="SourceGraphic" in2="effect1_dropShadow" result="shape"/>
</filter>
</defs>
<g class="currentLayer" style=""><title>Layer 1</title><g class="selected" id="svg_2"><path d="M60.44 30.18C59.3733 30.18 58.32 30.04 57.28 29.76C56.24 29.48 55.3933 29.1 54.74 28.62L55.92 25.96C56.6133 26.4 57.3467 26.74 58.12 26.98C58.9067 27.2067 59.6933 27.32 60.48 27.32C61.28 27.32 61.8933 27.2133 62.32 27C62.7467 26.7733 62.96 26.46 62.96 26.06C62.96 25.7 62.7667 25.4067 62.38 25.18C61.9933 24.94 61.2667 24.7067 60.2 24.48C58.8533 24.2133 57.8067 23.8867 57.06 23.5C56.3133 23.1 55.7867 22.6333 55.48 22.1C55.1867 21.5667 55.04 20.92 55.04 20.16C55.04 19.2933 55.2867 18.5133 55.78 17.82C56.2733 17.1133 56.9667 16.5667 57.86 16.18C58.7533 15.78 59.7733 15.58 60.92 15.58C61.9467 15.58 62.94 15.7267 63.9 16.02C64.8733 16.3 65.6333 16.6733 66.18 17.14L65.02 19.8C64.3933 19.36 63.7333 19.0267 63.04 18.8C62.3467 18.56 61.6533 18.44 60.96 18.44C60.28 18.44 59.7333 18.5733 59.32 18.84C58.9067 19.0933 58.7 19.44 58.7 19.88C58.7 20.12 58.7733 20.32 58.92 20.48C59.0667 20.64 59.34 20.8 59.74 20.96C60.14 21.1067 60.74 21.2667 61.54 21.44C62.8333 21.72 63.8467 22.06 64.58 22.46C65.3267 22.8467 65.8533 23.3067 66.16 23.84C66.4667 24.36 66.62 24.9867 66.62 25.72C66.62 27.1067 66.08 28.2 65 29C63.92 29.7867 62.4 30.18 60.44 30.18ZM73.5575 30.16C71.8375 30.16 70.4908 29.6933 69.5175 28.76C68.5442 27.8267 68.0575 26.5533 68.0575 24.94C68.0575 23.8733 68.2908 22.9333 68.7575 22.12C69.2375 21.3067 69.9042 20.68 70.7575 20.24C71.6108 19.7867 72.5975 19.56 73.7175 19.56C74.4642 19.56 75.1975 19.6733 75.9175 19.9C76.6375 20.1133 77.2108 20.4067 77.6375 20.78L76.7175 23.28C76.3575 22.9867 75.9375 22.7533 75.4575 22.58C74.9775 22.4067 74.5175 22.32 74.0775 22.32C73.3308 22.32 72.7575 22.5333 72.3575 22.96C71.9575 23.3867 71.7575 24.02 71.7575 24.86C71.7575 25.7133 71.9575 26.36 72.3575 26.8C72.7575 27.2267 73.3375 27.44 74.0975 27.44C74.5375 27.44 74.9908 27.3533 75.4575 27.18C75.9375 27.0067 76.3575 26.7733 76.7175 26.48L77.6375 28.94C77.1975 29.3267 76.6108 29.6267 75.8775 29.84C75.1575 30.0533 74.3842 30.16 73.5575 30.16ZM89.5105 19.84V30H85.9505V28.62C85.6571 29.1 85.2305 29.48 84.6705 29.76C84.1105 30.0267 83.4971 30.16 82.8305 30.16C81.9638 30.16 81.1905 29.9467 80.5105 29.52C79.8305 29.0933 79.2971 28.4867 78.9105 27.7C78.5371 26.9 78.3505 25.98 78.3505 24.94C78.3505 23.8867 78.5438 22.9533 78.9305 22.14C79.3171 21.3267 79.8505 20.6933 80.5305 20.24C81.2105 19.7867 81.9771 19.56 82.8305 19.56C83.4971 19.56 84.1038 19.7067 84.6505 20C85.2105 20.28 85.6438 20.66 85.9505 21.14V19.84H89.5105ZM83.9505 27.46C84.5905 27.46 85.0838 27.24 85.4305 26.8C85.7771 26.36 85.9505 25.7267 85.9505 24.9C85.9505 24.06 85.7771 23.42 85.4305 22.98C85.0838 22.5267 84.5905 22.3 83.9505 22.3C83.3238 22.3 82.8305 22.5333 82.4705 23C82.1105 23.4533 81.9305 24.1 81.9305 24.94C81.9305 25.7533 82.1038 26.38 82.4505 26.82C82.7971 27.2467 83.2971 27.46 83.9505 27.46ZM91.662 15.28H95.282V30H91.662V15.28ZM106.823 25.28H100.443C100.51 26.0667 100.737 26.6333 101.123 26.98C101.51 27.3267 102.077 27.5 102.823 27.5C103.33 27.5 103.837 27.42 104.343 27.26C104.85 27.0867 105.31 26.8533 105.723 26.56L106.643 28.96C106.137 29.3333 105.523 29.6267 104.803 29.84C104.083 30.0533 103.363 30.16 102.643 30.16C101.483 30.16 100.477 29.9467 99.6233 29.52C98.7699 29.0933 98.1166 28.4867 97.6633 27.7C97.2099 26.9 96.9833 25.96 96.9833 24.88C96.9833 23.8533 97.1966 22.94 97.6233 22.14C98.0633 21.3267 98.6633 20.6933 99.4233 20.24C100.197 19.7867 101.077 19.56 102.063 19.56C103.023 19.56 103.863 19.7733 104.583 20.2C105.303 20.6267 105.857 21.24 106.243 22.04C106.63 22.8267 106.823 23.7467 106.823 24.8V25.28ZM102.163 22.04C101.27 22.04 100.71 22.56 100.483 23.6H103.723C103.59 22.56 103.07 22.04 102.163 22.04Z" fill="#131B39" id="svg_1" class=""/><path d="M41.9994 28.5465C41.7293 29.8175 41.2515 30.3225 40.6719 30.6263C40.0029 30.977 39.1225 31.1139 37.8001 31.3195C37.6711 31.3395 37.5379 31.3602 37.4003 31.3818C34.3903 31.8548 30.2699 32.689 25.4629 37.2908C24.4112 38.0663 23.1492 38.1894 21.7245 37.7422C20.2528 37.2803 18.6699 36.2197 17.196 34.7458C14.2252 31.7749 12 27.4403 12 23.9402C12 16.8123 17.9008 11 25.2222 11C28.7403 11 32.9377 13.4987 36.3266 17.1188C39.6783 20.6993 41.9568 25.0769 41.9994 28.5465Z" stroke="#1A2835" stroke-width="2" id="svg_7" class=""/><path d="M30.9994 22.7107C30.7367 23.9089 30.1679 24.52 29.3214 24.9539C28.3995 25.4263 27.1773 25.6778 25.5327 26.0162C25.4274 26.0379 25.3204 26.0599 25.2117 26.0823C21.6817 26.8111 16.9787 27.9006 12.1132 32.5077C9.64233 34.3383 6.89858 34.3816 4.77608 33.1972C2.63356 32.0017 1 29.4801 1 25.95C1 18.8267 6.96393 13 14.3861 13C18.2526 13 22.4883 13.7596 25.7181 15.4073C28.9016 17.0314 30.9583 19.4215 30.9994 22.7107Z" stroke="#1A2835" stroke-width="2" id="svg_8" class=""/><path d="M27.9996 6.1246C27.78 7.31555 27.5863 8.83157 27.3689 10.5331C27.2873 11.1713 27.2024 11.8356 27.1116 12.5187C26.7684 15.0991 26.3335 18.0101 25.6602 20.996C24.3129 26.9709 22.0362 33.1247 17.7561 37.4844C15.3931 39.3476 12.7923 39.3834 10.7788 38.1869C8.72969 36.9693 7.13713 34.3764 7.13713 30.7176C7.13713 29.5869 7.10646 28.3319 7.07407 27.007C6.99016 23.5739 6.89476 19.6711 7.2918 16.2438C7.56614 13.8756 8.0649 11.8783 8.88358 10.4985C9.6677 9.17699 10.7064 8.46654 12.1992 8.46654C14.2953 8.46654 16.4377 7.84305 18.408 7.09445C19.3994 6.71777 20.3672 6.30131 21.2785 5.90313C21.4219 5.84046 21.5637 5.77836 21.7038 5.71698C22.462 5.38487 23.1726 5.0736 23.8416 4.80533C24.6355 4.48693 25.3285 4.24672 25.921 4.11371C26.5245 3.97821 26.9339 3.97546 27.2004 4.04446C27.415 4.10003 27.5718 4.20719 27.7062 4.46361C27.8594 4.75612 27.991 5.26756 27.9996 6.1246Z" stroke="#1A2835" stroke-width="2" id="svg_9" class=""/></g></g></svg>