<svg width="792" height="98" viewBox="0 0 792 98" fill="none" xmlns="http://www.w3.org/2000/svg">
<path d="M25.4923 4.14V6.376H23.2823V4.712C23.2823 4.05333 23.3776 3.45533 23.5683 2.918C23.7763 2.36333 24.1229 1.84333 24.6083 1.358L25.4663 1.982C25.1196 2.38067 24.8683 2.75333 24.7123 3.1C24.5736 3.42933 24.4869 3.776 24.4523 4.14H25.4923ZM29.5483 4.14V6.376H27.3383V4.712C27.3383 4.05333 27.4336 3.45533 27.6243 2.918C27.8323 2.36333 28.1789 1.84333 28.6643 1.358L29.5223 1.982C29.1756 2.38067 28.9243 2.75333 28.7683 3.1C28.6296 3.42933 28.5429 3.776 28.5083 4.14H29.5483ZM39.4525 20.208C37.9965 20.208 36.7051 20.0173 35.5785 19.636C34.4691 19.2373 33.4811 18.622 32.6145 17.79L33.2905 16.516C34.2091 17.3307 35.1365 17.9113 36.0725 18.258C37.0258 18.6047 38.1525 18.778 39.4525 18.778C41.0125 18.778 42.2258 18.4573 43.0925 17.816C43.9591 17.1747 44.3925 16.2733 44.3925 15.112C44.3925 14.436 44.1758 13.89 43.7425 13.474C43.3265 13.0407 42.7891 12.7027 42.1305 12.46C41.4891 12.2173 40.6311 11.9747 39.5565 11.732C38.1351 11.42 36.9738 11.0993 36.0725 10.77C35.1885 10.4233 34.4431 9.912 33.8365 9.236C33.2298 8.56 32.9265 7.65867 32.9265 6.532C32.9265 5.492 33.1951 4.57333 33.7325 3.776C34.2698 2.97867 35.0325 2.36333 36.0205 1.93C37.0258 1.49667 38.1871 1.28 39.5045 1.28C40.7698 1.28 41.9398 1.488 43.0145 1.904C44.0891 2.30267 45.0165 2.90067 45.7965 3.698L45.1205 4.972C44.2538 4.192 43.3698 3.62 42.4685 3.256C41.5671 2.892 40.5791 2.71 39.5045 2.71C37.9445 2.71 36.7225 3.048 35.8385 3.724C34.9718 4.4 34.5385 5.32733 34.5385 6.506C34.5385 7.52867 34.9198 8.29133 35.6825 8.794C36.4451 9.29667 37.5631 9.72133 39.0365 10.068L39.7905 10.25C41.1771 10.5793 42.2778 10.9 43.0925 11.212C43.9071 11.524 44.6005 11.992 45.1725 12.616C45.7445 13.24 46.0305 14.072 46.0305 15.112C46.0305 16.1173 45.7618 17.01 45.2245 17.79C44.6871 18.5527 43.9158 19.1507 42.9105 19.584C41.9225 20 40.7698 20.208 39.4525 20.208ZM54.6958 20.182C53.4651 20.182 52.3904 19.9047 51.4718 19.35C50.5531 18.7953 49.8424 18.0153 49.3398 17.01C48.8371 15.9873 48.5858 14.8087 48.5858 13.474C48.5858 12.122 48.8371 10.9347 49.3398 9.912C49.8424 8.872 50.5618 8.07467 51.4978 7.52C52.4338 6.948 53.5171 6.662 54.7478 6.662C55.6318 6.662 56.4724 6.818 57.2698 7.13C58.0844 7.42467 58.7518 7.84067 59.2718 8.378L58.6478 9.626C57.9718 9.07133 57.3218 8.67267 56.6978 8.43C56.0911 8.17 55.4584 8.04 54.7998 8.04C53.3958 8.04 52.2864 8.52533 51.4718 9.496C50.6571 10.4493 50.2498 11.7753 50.2498 13.474C50.2498 15.138 50.6484 16.438 51.4458 17.374C52.2604 18.31 53.3784 18.778 54.7998 18.778C55.4584 18.778 56.0911 18.6567 56.6978 18.414C57.3218 18.154 57.9718 17.7553 58.6478 17.218L59.2718 18.44C58.7171 18.9773 58.0238 19.402 57.1918 19.714C56.3771 20.026 55.5451 20.182 54.6958 20.182ZM73.2139 6.974V20H71.6279V17.504C71.2465 18.3707 70.6659 19.038 69.8859 19.506C69.1232 19.9567 68.2045 20.182 67.1299 20.182C65.9685 20.182 64.9459 19.9133 64.0619 19.376C63.1952 18.8213 62.5192 18.0413 62.0339 17.036C61.5659 16.0133 61.3319 14.826 61.3319 13.474C61.3319 12.122 61.5745 10.9347 62.0599 9.912C62.5452 8.872 63.2212 8.07467 64.0879 7.52C64.9719 6.948 65.9859 6.662 67.1299 6.662C68.1872 6.662 69.0972 6.88733 69.8599 7.338C70.6399 7.78867 71.2292 8.44733 71.6279 9.314V6.974H73.2139ZM67.3639 18.778C68.7159 18.778 69.7645 18.31 70.5099 17.374C71.2552 16.438 71.6279 15.1207 71.6279 13.422C71.6279 11.706 71.2552 10.38 70.5099 9.444C69.7645 8.508 68.7072 8.04 67.3379 8.04C65.9685 8.04 64.9025 8.52533 64.1399 9.496C63.3772 10.4493 62.9959 11.7753 62.9959 13.474C62.9959 15.1553 63.3772 16.464 64.1399 17.4C64.9025 18.3187 65.9772 18.778 67.3639 18.778ZM77.5252 0.863998H79.0852V20H77.5252V0.863998ZM84.2732 13.292V13.37C84.2732 15.1207 84.6719 16.464 85.4692 17.4C86.2839 18.3187 87.4625 18.778 89.0052 18.778C90.5652 18.778 91.9952 18.2407 93.2952 17.166L93.9192 18.414C93.3472 18.9513 92.6192 19.3847 91.7352 19.714C90.8512 20.026 89.9412 20.182 89.0052 20.182C87.0292 20.182 85.4692 19.584 84.3252 18.388C83.1812 17.192 82.6092 15.5453 82.6092 13.448C82.6092 12.1133 82.8605 10.9347 83.3632 9.912C83.8832 8.872 84.6025 8.07467 85.5212 7.52C86.4399 6.948 87.4972 6.662 88.6932 6.662C90.4092 6.662 91.7439 7.21667 92.6972 8.326C93.6679 9.43533 94.1532 10.978 94.1532 12.954V13.292H84.2732ZM88.6932 7.962C87.4972 7.962 86.5265 8.326 85.7812 9.054C85.0359 9.76467 84.5679 10.77 84.3772 12.07H92.6452C92.5412 10.7353 92.1512 9.72133 91.4752 9.028C90.7992 8.31733 89.8719 7.962 88.6932 7.962ZM110.243 6.662C113.381 6.662 114.949 8.34333 114.949 11.706V20H113.363V11.81C113.363 10.51 113.095 9.55667 112.557 8.95C112.037 8.34333 111.214 8.04 110.087 8.04C108.787 8.04 107.739 8.43867 106.941 9.236C106.144 10.0333 105.745 11.108 105.745 12.46V20H104.185V0.863998H105.745V9.236C106.161 8.38667 106.759 7.74533 107.539 7.312C108.319 6.87867 109.221 6.662 110.243 6.662ZM120.049 13.292V13.37C120.049 15.1207 120.447 16.464 121.245 17.4C122.059 18.3187 123.238 18.778 124.781 18.778C126.341 18.778 127.771 18.2407 129.071 17.166L129.695 18.414C129.123 18.9513 128.395 19.3847 127.511 19.714C126.627 20.026 125.717 20.182 124.781 20.182C122.805 20.182 121.245 19.584 120.101 18.388C118.957 17.192 118.385 15.5453 118.385 13.448C118.385 12.1133 118.636 10.9347 119.139 9.912C119.659 8.872 120.378 8.07467 121.297 7.52C122.215 6.948 123.273 6.662 124.469 6.662C126.185 6.662 127.519 7.21667 128.473 8.326C129.443 9.43533 129.929 10.978 129.929 12.954V13.292H120.049ZM124.469 7.962C123.273 7.962 122.302 8.326 121.557 9.054C120.811 9.76467 120.343 10.77 120.153 12.07H128.421C128.317 10.7353 127.927 9.72133 127.251 9.028C126.575 8.31733 125.647 7.962 124.469 7.962ZM133.334 0.863998H134.894V20H133.334V0.863998ZM145.334 6.662C146.478 6.662 147.483 6.948 148.35 7.52C149.234 8.07467 149.918 8.872 150.404 9.912C150.889 10.9347 151.132 12.122 151.132 13.474C151.132 14.826 150.889 16.0047 150.404 17.01C149.936 18.0153 149.26 18.7953 148.376 19.35C147.492 19.9047 146.478 20.182 145.334 20.182C144.242 20.182 143.306 19.948 142.526 19.48C141.763 18.9947 141.191 18.3013 140.81 17.4V25.616H139.25V10.588C139.25 9.236 139.18 8.03133 139.042 6.974H140.55L140.758 9.522C141.139 8.60333 141.72 7.90133 142.5 7.416C143.297 6.91333 144.242 6.662 145.334 6.662ZM145.126 18.778C146.495 18.778 147.561 18.3187 148.324 17.4C149.086 16.464 149.468 15.1553 149.468 13.474C149.468 11.7753 149.086 10.4493 148.324 9.496C147.561 8.52533 146.504 8.04 145.152 8.04C143.765 8.04 142.699 8.508 141.954 9.444C141.208 10.38 140.836 11.706 140.836 13.422C140.836 15.1207 141.208 16.438 141.954 17.374C142.699 18.31 143.756 18.778 145.126 18.778ZM155.443 13.292V13.37C155.443 15.1207 155.842 16.464 156.639 17.4C157.454 18.3187 158.632 18.778 160.175 18.778C161.735 18.778 163.165 18.2407 164.465 17.166L165.089 18.414C164.517 18.9513 163.789 19.3847 162.905 19.714C162.021 20.026 161.111 20.182 160.175 20.182C158.199 20.182 156.639 19.584 155.495 18.388C154.351 17.192 153.779 15.5453 153.779 13.448C153.779 12.1133 154.03 10.9347 154.533 9.912C155.053 8.872 155.772 8.07467 156.691 7.52C157.61 6.948 158.667 6.662 159.863 6.662C161.579 6.662 162.914 7.21667 163.867 8.326C164.838 9.43533 165.323 10.978 165.323 12.954V13.292H155.443ZM159.863 7.962C158.667 7.962 157.696 8.326 156.951 9.054C156.206 9.76467 155.738 10.77 155.547 12.07H163.815C163.711 10.7353 163.321 9.72133 162.645 9.028C161.969 8.31733 161.042 7.962 159.863 7.962ZM179.778 0.863998V20H178.192V17.504C177.811 18.3707 177.23 19.038 176.45 19.506C175.688 19.9567 174.769 20.182 173.694 20.182C172.55 20.182 171.536 19.9047 170.652 19.35C169.786 18.778 169.11 17.9807 168.624 16.958C168.139 15.918 167.896 14.722 167.896 13.37C167.896 12.018 168.13 10.8393 168.598 9.834C169.084 8.81133 169.76 8.03133 170.626 7.494C171.51 6.93933 172.533 6.662 173.694 6.662C174.752 6.662 175.662 6.88733 176.424 7.338C177.204 7.78867 177.794 8.44733 178.192 9.314V0.863998H179.778ZM173.902 18.778C175.272 18.778 176.329 18.31 177.074 17.374C177.82 16.438 178.192 15.1207 178.192 13.422C178.192 11.7233 177.82 10.406 177.074 9.47C176.329 8.51667 175.28 8.04 173.928 8.04C172.542 8.04 171.467 8.508 170.704 9.444C169.942 10.38 169.56 11.6887 169.56 13.37C169.56 15.0687 169.942 16.3947 170.704 17.348C171.467 18.3013 172.533 18.778 173.902 18.778ZM201.195 6.974V20H199.661V17.634C199.245 18.466 198.655 19.0987 197.893 19.532C197.13 19.9653 196.255 20.182 195.267 20.182C193.741 20.182 192.589 19.7573 191.809 18.908C191.029 18.0587 190.639 16.802 190.639 15.138V6.974H192.199V15.034C192.199 16.3167 192.459 17.2613 192.979 17.868C193.499 18.4747 194.305 18.778 195.397 18.778C196.679 18.778 197.702 18.3793 198.465 17.582C199.227 16.7673 199.609 15.6927 199.609 14.358V6.974H201.195ZM209.757 20.182C207.643 20.182 205.97 19.6013 204.739 18.44L205.311 17.218C206.005 17.79 206.698 18.1973 207.391 18.44C208.102 18.6827 208.917 18.804 209.835 18.804C210.91 18.804 211.725 18.622 212.279 18.258C212.851 17.8767 213.137 17.3307 213.137 16.62C213.137 16.0307 212.947 15.5713 212.565 15.242C212.201 14.8953 211.595 14.618 210.745 14.41L208.535 13.916C207.495 13.6733 206.672 13.24 206.065 12.616C205.476 11.992 205.181 11.264 205.181 10.432C205.181 9.288 205.615 8.378 206.481 7.702C207.365 7.00867 208.535 6.662 209.991 6.662C210.91 6.662 211.759 6.80933 212.539 7.104C213.337 7.39867 213.995 7.82333 214.515 8.378L213.917 9.6C212.721 8.56 211.413 8.04 209.991 8.04C208.986 8.04 208.206 8.23933 207.651 8.638C207.097 9.03667 206.819 9.59133 206.819 10.302C206.819 10.8913 206.993 11.368 207.339 11.732C207.703 12.096 208.258 12.3647 209.003 12.538L211.239 13.084C213.579 13.604 214.749 14.7567 214.749 16.542C214.749 17.634 214.299 18.518 213.397 19.194C212.496 19.8527 211.283 20.182 209.757 20.182ZM224.994 6.974H226.554V20H224.994V6.974ZM226.866 1.592V3.62H224.76V1.592H226.866ZM236.968 6.662C240.105 6.662 241.674 8.34333 241.674 11.706V20H240.088V11.81C240.088 10.51 239.819 9.55667 239.282 8.95C238.762 8.34333 237.939 8.04 236.812 8.04C235.512 8.04 234.463 8.43867 233.666 9.236C232.869 10.0333 232.47 11.108 232.47 12.46V20H230.91V10.588C230.91 9.236 230.841 8.03133 230.702 6.974H232.21L232.418 9.366C232.817 8.482 233.415 7.81467 234.212 7.364C235.009 6.896 235.928 6.662 236.968 6.662ZM251.219 20.182C249.989 20.182 248.914 19.9047 247.995 19.35C247.077 18.7953 246.366 18.0153 245.863 17.01C245.361 15.9873 245.109 14.8087 245.109 13.474C245.109 12.122 245.361 10.9347 245.863 9.912C246.366 8.872 247.085 8.07467 248.021 7.52C248.957 6.948 250.041 6.662 251.271 6.662C252.155 6.662 252.996 6.818 253.793 7.13C254.608 7.42467 255.275 7.84067 255.795 8.378L255.171 9.626C254.495 9.07133 253.845 8.67267 253.221 8.43C252.615 8.17 251.982 8.04 251.323 8.04C249.919 8.04 248.81 8.52533 247.995 9.496C247.181 10.4493 246.773 11.7753 246.773 13.474C246.773 15.138 247.172 16.438 247.969 17.374C248.784 18.31 249.902 18.778 251.323 18.778C251.982 18.778 252.615 18.6567 253.221 18.414C253.845 18.154 254.495 17.7553 255.171 17.218L255.795 18.44C255.241 18.9773 254.547 19.402 253.715 19.714C252.901 20.026 252.069 20.182 251.219 20.182ZM264.303 6.662C264.737 6.662 265.118 6.69667 265.447 6.766L265.369 8.196C265.04 8.12667 264.641 8.092 264.173 8.092C262.856 8.092 261.868 8.51667 261.209 9.366C260.568 10.198 260.247 11.1947 260.247 12.356V20H258.687V10.588C258.687 9.236 258.618 8.03133 258.479 6.974H259.987L260.195 9.392C260.525 8.508 261.053 7.832 261.781 7.364C262.527 6.896 263.367 6.662 264.303 6.662ZM268.33 13.292V13.37C268.33 15.1207 268.729 16.464 269.526 17.4C270.341 18.3187 271.519 18.778 273.062 18.778C274.622 18.778 276.052 18.2407 277.352 17.166L277.976 18.414C277.404 18.9513 276.676 19.3847 275.792 19.714C274.908 20.026 273.998 20.182 273.062 20.182C271.086 20.182 269.526 19.584 268.382 18.388C267.238 17.192 266.666 15.5453 266.666 13.448C266.666 12.1133 266.917 10.9347 267.42 9.912C267.94 8.872 268.659 8.07467 269.578 7.52C270.497 6.948 271.554 6.662 272.75 6.662C274.466 6.662 275.801 7.21667 276.754 8.326C277.725 9.43533 278.21 10.978 278.21 12.954V13.292H268.33ZM272.75 7.962C271.554 7.962 270.583 8.326 269.838 9.054C269.093 9.76467 268.625 10.77 268.434 12.07H276.702C276.598 10.7353 276.208 9.72133 275.532 9.028C274.856 8.31733 273.929 7.962 272.75 7.962ZM292.665 6.974V20H291.079V17.504C290.698 18.3707 290.117 19.038 289.337 19.506C288.574 19.9567 287.656 20.182 286.581 20.182C285.42 20.182 284.397 19.9133 283.513 19.376C282.646 18.8213 281.97 18.0413 281.485 17.036C281.017 16.0133 280.783 14.826 280.783 13.474C280.783 12.122 281.026 10.9347 281.511 9.912C281.996 8.872 282.672 8.07467 283.539 7.52C284.423 6.948 285.437 6.662 286.581 6.662C287.638 6.662 288.548 6.88733 289.311 7.338C290.091 7.78867 290.68 8.44733 291.079 9.314V6.974H292.665ZM286.815 18.778C288.167 18.778 289.216 18.31 289.961 17.374C290.706 16.438 291.079 15.1207 291.079 13.422C291.079 11.706 290.706 10.38 289.961 9.444C289.216 8.508 288.158 8.04 286.789 8.04C285.42 8.04 284.354 8.52533 283.591 9.496C282.828 10.4493 282.447 11.7753 282.447 13.474C282.447 15.1553 282.828 16.464 283.591 17.4C284.354 18.3187 285.428 18.778 286.815 18.778ZM301.214 20.182C299.1 20.182 297.427 19.6013 296.196 18.44L296.768 17.218C297.462 17.79 298.155 18.1973 298.848 18.44C299.559 18.6827 300.374 18.804 301.292 18.804C302.367 18.804 303.182 18.622 303.736 18.258C304.308 17.8767 304.594 17.3307 304.594 16.62C304.594 16.0307 304.404 15.5713 304.022 15.242C303.658 14.8953 303.052 14.618 302.202 14.41L299.992 13.916C298.952 13.6733 298.129 13.24 297.522 12.616C296.933 11.992 296.638 11.264 296.638 10.432C296.638 9.288 297.072 8.378 297.938 7.702C298.822 7.00867 299.992 6.662 301.448 6.662C302.367 6.662 303.216 6.80933 303.996 7.104C304.794 7.39867 305.452 7.82333 305.972 8.378L305.374 9.6C304.178 8.56 302.87 8.04 301.448 8.04C300.443 8.04 299.663 8.23933 299.108 8.638C298.554 9.03667 298.276 9.59133 298.276 10.302C298.276 10.8913 298.45 11.368 298.796 11.732C299.16 12.096 299.715 12.3647 300.46 12.538L302.696 13.084C305.036 13.604 306.206 14.7567 306.206 16.542C306.206 17.634 305.756 18.518 304.854 19.194C303.953 19.8527 302.74 20.182 301.214 20.182ZM310.656 13.292V13.37C310.656 15.1207 311.055 16.464 311.852 17.4C312.667 18.3187 313.845 18.778 315.388 18.778C316.948 18.778 318.378 18.2407 319.678 17.166L320.302 18.414C319.73 18.9513 319.002 19.3847 318.118 19.714C317.234 20.026 316.324 20.182 315.388 20.182C313.412 20.182 311.852 19.584 310.708 18.388C309.564 17.192 308.992 15.5453 308.992 13.448C308.992 12.1133 309.243 10.9347 309.746 9.912C310.266 8.872 310.985 8.07467 311.904 7.52C312.823 6.948 313.88 6.662 315.076 6.662C316.792 6.662 318.127 7.21667 319.08 8.326C320.051 9.43533 320.536 10.978 320.536 12.954V13.292H310.656ZM315.076 7.962C313.88 7.962 312.909 8.326 312.164 9.054C311.419 9.76467 310.951 10.77 310.76 12.07H319.028C318.924 10.7353 318.534 9.72133 317.858 9.028C317.182 8.31733 316.255 7.962 315.076 7.962ZM335.742 20.182C334.546 20.182 333.489 19.9047 332.57 19.35C331.669 18.7953 330.967 18.0067 330.464 16.984C329.979 15.9613 329.736 14.774 329.736 13.422C329.736 12.07 329.979 10.8827 330.464 9.86C330.967 8.83733 331.669 8.04867 332.57 7.494C333.489 6.93933 334.546 6.662 335.742 6.662C336.921 6.662 337.961 6.93933 338.862 7.494C339.763 8.04867 340.457 8.83733 340.942 9.86C341.445 10.8827 341.696 12.07 341.696 13.422C341.696 14.774 341.445 15.9613 340.942 16.984C340.457 18.0067 339.763 18.7953 338.862 19.35C337.961 19.9047 336.921 20.182 335.742 20.182ZM335.716 18.778C337.103 18.778 338.169 18.3187 338.914 17.4C339.677 16.464 340.058 15.138 340.058 13.422C340.058 11.7233 339.677 10.406 338.914 9.47C338.151 8.51667 337.094 8.04 335.742 8.04C334.373 8.04 333.307 8.51667 332.544 9.47C331.781 10.406 331.4 11.7233 331.4 13.422C331.4 15.1553 331.773 16.4813 332.518 17.4C333.263 18.3187 334.329 18.778 335.716 18.778ZM355.646 6.974V20H354.112V17.634C353.696 18.466 353.106 19.0987 352.344 19.532C351.581 19.9653 350.706 20.182 349.718 20.182C348.192 20.182 347.04 19.7573 346.26 18.908C345.48 18.0587 345.09 16.802 345.09 15.138V6.974H346.65V15.034C346.65 16.3167 346.91 17.2613 347.43 17.868C347.95 18.4747 348.756 18.778 349.848 18.778C351.13 18.778 352.153 18.3793 352.916 17.582C353.678 16.7673 354.06 15.6927 354.06 14.358V6.974H355.646ZM365.587 6.662C366.02 6.662 366.401 6.69667 366.731 6.766L366.653 8.196C366.323 8.12667 365.925 8.092 365.456 8.092C364.139 8.092 363.151 8.51667 362.493 9.366C361.851 10.198 361.531 11.1947 361.531 12.356V20H359.971V10.588C359.971 9.236 359.901 8.03133 359.763 6.974H361.271L361.479 9.392C361.808 8.508 362.337 7.832 363.065 7.364C363.81 6.896 364.651 6.662 365.587 6.662ZM387.96 15.06H377.976L375.844 20H374.18L382.24 1.488H383.696L391.73 20H390.066L387.96 15.06ZM387.336 13.656L382.968 3.438L378.574 13.656H387.336ZM401.666 20.208C399.985 20.208 398.52 19.8267 397.272 19.064C396.042 18.3013 395.088 17.2093 394.412 15.788C393.754 14.3667 393.424 12.6853 393.424 10.744C393.424 8.80267 393.754 7.12133 394.412 5.7C395.071 4.27867 396.016 3.18667 397.246 2.424C398.494 1.66133 399.968 1.28 401.666 1.28C403.365 1.28 404.838 1.66133 406.086 2.424C407.334 3.18667 408.288 4.27867 408.946 5.7C409.605 7.104 409.934 8.77667 409.934 10.718C409.934 12.6593 409.596 14.3493 408.92 15.788C408.262 17.2093 407.308 18.3013 406.06 19.064C404.83 19.8267 403.365 20.208 401.666 20.208ZM401.666 18.778C403.746 18.778 405.358 18.076 406.502 16.672C407.664 15.268 408.244 13.2833 408.244 10.718C408.244 8.15267 407.672 6.17667 406.528 4.79C405.384 3.40333 403.764 2.71 401.666 2.71C399.586 2.71 397.966 3.412 396.804 4.816C395.66 6.20267 395.088 8.17 395.088 10.718C395.088 13.266 395.66 15.2507 396.804 16.672C397.966 18.076 399.586 18.778 401.666 18.778ZM428.914 1.488L420.906 20H419.424L411.416 1.488H413.106L420.178 17.92L427.25 1.488H428.914ZM441.275 24.732C440.304 22.808 439.594 20.8927 439.143 18.986C438.692 17.0793 438.467 15.112 438.467 13.084C438.467 11.0907 438.692 9.14067 439.143 7.234C439.594 5.32733 440.296 3.412 441.249 1.488H442.653C441.734 3.60267 441.076 5.596 440.677 7.468C440.296 9.34 440.105 11.212 440.105 13.084C440.105 14.956 440.296 16.8367 440.677 18.726C441.076 20.6153 441.734 22.6173 442.653 24.732H441.275ZM447.874 8.248V15.996C447.874 17.036 448.073 17.7553 448.472 18.154C448.871 18.5527 449.46 18.752 450.24 18.752C450.725 18.752 451.193 18.674 451.644 18.518V19.948C451.089 20.0867 450.526 20.156 449.954 20.156C448.81 20.156 447.909 19.8353 447.25 19.194C446.609 18.5527 446.288 17.5907 446.288 16.308V8.248H443.714V6.974H446.288V3.516L447.874 2.918V6.974H451.722V8.248H447.874ZM459.598 20.182C458.402 20.182 457.344 19.9047 456.426 19.35C455.524 18.7953 454.822 18.0067 454.32 16.984C453.834 15.9613 453.592 14.774 453.592 13.422C453.592 12.07 453.834 10.8827 454.32 9.86C454.822 8.83733 455.524 8.04867 456.426 7.494C457.344 6.93933 458.402 6.662 459.598 6.662C460.776 6.662 461.816 6.93933 462.718 7.494C463.619 8.04867 464.312 8.83733 464.798 9.86C465.3 10.8827 465.552 12.07 465.552 13.422C465.552 14.774 465.3 15.9613 464.798 16.984C464.312 18.0067 463.619 18.7953 462.718 19.35C461.816 19.9047 460.776 20.182 459.598 20.182ZM459.572 18.778C460.958 18.778 462.024 18.3187 462.77 17.4C463.532 16.464 463.914 15.138 463.914 13.422C463.914 11.7233 463.532 10.406 462.77 9.47C462.007 8.51667 460.95 8.04 459.598 8.04C458.228 8.04 457.162 8.51667 456.4 9.47C455.637 10.406 455.256 11.7233 455.256 13.422C455.256 15.1553 455.628 16.4813 456.374 17.4C457.119 18.3187 458.185 18.778 459.572 18.778ZM481.734 6.662C482.878 6.662 483.884 6.948 484.75 7.52C485.634 8.07467 486.319 8.872 486.804 9.912C487.29 10.9347 487.532 12.122 487.532 13.474C487.532 14.826 487.29 16.0047 486.804 17.01C486.336 18.0153 485.66 18.7953 484.776 19.35C483.892 19.9047 482.878 20.182 481.734 20.182C480.642 20.182 479.706 19.948 478.926 19.48C478.164 18.9947 477.592 18.3013 477.21 17.4V25.616H475.65V10.588C475.65 9.236 475.581 8.03133 475.442 6.974H476.95L477.158 9.522C477.54 8.60333 478.12 7.90133 478.9 7.416C479.698 6.91333 480.642 6.662 481.734 6.662ZM481.526 18.778C482.896 18.778 483.962 18.3187 484.724 17.4C485.487 16.464 485.868 15.1553 485.868 13.474C485.868 11.7753 485.487 10.4493 484.724 9.496C483.962 8.52533 482.904 8.04 481.552 8.04C480.166 8.04 479.1 8.508 478.354 9.444C477.609 10.38 477.236 11.706 477.236 13.422C477.236 15.1207 477.609 16.438 478.354 17.374C479.1 18.31 480.157 18.778 481.526 18.778ZM496.628 6.662C497.061 6.662 497.442 6.69667 497.772 6.766L497.694 8.196C497.364 8.12667 496.966 8.092 496.498 8.092C495.18 8.092 494.192 8.51667 493.534 9.366C492.892 10.198 492.572 11.1947 492.572 12.356V20H491.012V10.588C491.012 9.236 490.942 8.03133 490.804 6.974H492.312L492.52 9.392C492.849 8.508 493.378 7.832 494.106 7.364C494.851 6.896 495.692 6.662 496.628 6.662ZM504.996 20.182C503.8 20.182 502.743 19.9047 501.824 19.35C500.923 18.7953 500.221 18.0067 499.718 16.984C499.233 15.9613 498.99 14.774 498.99 13.422C498.99 12.07 499.233 10.8827 499.718 9.86C500.221 8.83733 500.923 8.04867 501.824 7.494C502.743 6.93933 503.8 6.662 504.996 6.662C506.175 6.662 507.215 6.93933 508.116 7.494C509.017 8.04867 509.711 8.83733 510.196 9.86C510.699 10.8827 510.95 12.07 510.95 13.422C510.95 14.774 510.699 15.9613 510.196 16.984C509.711 18.0067 509.017 18.7953 508.116 19.35C507.215 19.9047 506.175 20.182 504.996 20.182ZM504.97 18.778C506.357 18.778 507.423 18.3187 508.168 17.4C508.931 16.464 509.312 15.138 509.312 13.422C509.312 11.7233 508.931 10.406 508.168 9.47C507.405 8.51667 506.348 8.04 504.996 8.04C503.627 8.04 502.561 8.51667 501.798 9.47C501.035 10.406 500.654 11.7233 500.654 13.422C500.654 15.1553 501.027 16.4813 501.772 17.4C502.517 18.3187 503.583 18.778 504.97 18.778ZM516.632 6.974H524.38V20H522.794V8.248H516.632V20H515.046V8.248H512.472V6.974H515.046V5.024C515.046 3.516 515.392 2.43267 516.086 1.774C516.796 1.11533 518.018 0.785999 519.752 0.785999H520.506V2.086H519.856C518.92 2.086 518.226 2.17267 517.776 2.346C517.342 2.502 517.039 2.814 516.866 3.282C516.71 3.75 516.632 4.46933 516.632 5.44V6.974ZM524.666 1.462V3.542H522.508V1.462H524.666ZM530.876 8.248V15.996C530.876 17.036 531.075 17.7553 531.474 18.154C531.872 18.5527 532.462 18.752 533.242 18.752C533.727 18.752 534.195 18.674 534.646 18.518V19.948C534.091 20.0867 533.528 20.156 532.956 20.156C531.812 20.156 530.91 19.8353 530.252 19.194C529.61 18.5527 529.29 17.5907 529.29 16.308V8.248H526.716V6.974H529.29V3.516L530.876 2.918V6.974H534.724V8.248H530.876ZM548.476 6.974V20H546.89V17.504C546.508 18.3707 545.928 19.038 545.148 19.506C544.385 19.9567 543.466 20.182 542.392 20.182C541.23 20.182 540.208 19.9133 539.324 19.376C538.457 18.8213 537.781 18.0413 537.296 17.036C536.828 16.0133 536.594 14.826 536.594 13.474C536.594 12.122 536.836 10.9347 537.322 9.912C537.807 8.872 538.483 8.07467 539.35 7.52C540.234 6.948 541.248 6.662 542.392 6.662C543.449 6.662 544.359 6.88733 545.122 7.338C545.902 7.78867 546.491 8.44733 546.89 9.314V6.974H548.476ZM542.626 18.778C543.978 18.778 545.026 18.31 545.772 17.374C546.517 16.438 546.89 15.1207 546.89 13.422C546.89 11.706 546.517 10.38 545.772 9.444C545.026 8.508 543.969 8.04 542.6 8.04C541.23 8.04 540.164 8.52533 539.402 9.496C538.639 10.4493 538.258 11.7753 538.258 13.474C538.258 15.1553 538.639 16.464 539.402 17.4C540.164 18.3187 541.239 18.778 542.626 18.778ZM558.871 6.662C560.015 6.662 561.029 6.93933 561.913 7.494C562.797 8.04867 563.473 8.82867 563.941 9.834C564.426 10.8393 564.669 12.018 564.669 13.37C564.669 14.722 564.426 15.918 563.941 16.958C563.456 17.9807 562.771 18.778 561.887 19.35C561.02 19.9047 560.015 20.182 558.871 20.182C557.796 20.182 556.869 19.948 556.089 19.48C555.326 19.012 554.754 18.336 554.373 17.452V20H552.787V0.863998H554.347V9.418C554.728 8.51667 555.309 7.832 556.089 7.364C556.869 6.896 557.796 6.662 558.871 6.662ZM558.689 18.778C560.041 18.778 561.098 18.3013 561.861 17.348C562.624 16.3947 563.005 15.0687 563.005 13.37C563.005 11.6887 562.624 10.38 561.861 9.444C561.098 8.508 560.032 8.04 558.663 8.04C557.294 8.04 556.236 8.508 555.491 9.444C554.746 10.38 554.373 11.706 554.373 13.422C554.373 15.138 554.746 16.464 555.491 17.4C556.236 18.3187 557.302 18.778 558.689 18.778ZM568.148 6.974H569.708V20H568.148V6.974ZM570.02 1.592V3.62H567.914V1.592H570.02ZM574.064 0.863998H575.624V20H574.064V0.863998ZM579.98 6.974H581.54V20H579.98V6.974ZM581.852 1.592V3.62H579.746V1.592H581.852ZM588.106 8.248V15.996C588.106 17.036 588.306 17.7553 588.704 18.154C589.103 18.5527 589.692 18.752 590.472 18.752C590.958 18.752 591.426 18.674 591.876 18.518V19.948C591.322 20.0867 590.758 20.156 590.186 20.156C589.042 20.156 588.141 19.8353 587.482 19.194C586.841 18.5527 586.52 17.5907 586.52 16.308V8.248H583.946V6.974H586.52V3.516L588.106 2.918V6.974H591.954V8.248H588.106ZM605.833 6.974L599.697 21.352C599.09 22.7733 598.328 23.8133 597.409 24.472C596.508 25.148 595.372 25.6247 594.003 25.902L593.691 24.654C594.939 24.3593 595.875 23.978 596.499 23.51C597.14 23.042 597.678 22.3053 598.111 21.3L598.657 20.026L593.093 6.974H594.783L599.489 18.414L604.221 6.974H605.833ZM607.169 24.732C608.07 22.6173 608.712 20.6153 609.093 18.726C609.492 16.8193 609.691 14.9387 609.691 13.084C609.691 11.212 609.492 9.34 609.093 7.468C608.712 5.596 608.062 3.60267 607.143 1.488H608.547C609.5 3.412 610.202 5.32733 610.653 7.234C611.104 9.14067 611.329 11.0907 611.329 13.084C611.329 15.112 611.104 17.0793 610.653 18.986C610.202 20.8927 609.492 22.808 608.521 24.732H607.169ZM618.084 17.738V19.402C618.084 20.0607 617.98 20.6673 617.772 21.222C617.564 21.7767 617.217 22.2967 616.732 22.782L615.9 22.132C616.489 21.4733 616.819 20.7627 616.888 20H615.874V17.738H618.084ZM628.629 6.974H630.189V20H628.629V6.974ZM630.501 1.592V3.62H628.395V1.592H630.501ZM640.603 6.662C643.74 6.662 645.309 8.34333 645.309 11.706V20H643.723V11.81C643.723 10.51 643.454 9.55667 642.917 8.95C642.397 8.34333 641.573 8.04 640.447 8.04C639.147 8.04 638.098 8.43867 637.301 9.236C636.503 10.0333 636.105 11.108 636.105 12.46V20H634.545V10.588C634.545 9.236 634.475 8.03133 634.337 6.974H635.845L636.053 9.366C636.451 8.482 637.049 7.81467 637.847 7.364C638.644 6.896 639.563 6.662 640.603 6.662ZM654.854 20.182C653.623 20.182 652.549 19.9047 651.63 19.35C650.711 18.7953 650.001 18.0153 649.498 17.01C648.995 15.9873 648.744 14.8087 648.744 13.474C648.744 12.122 648.995 10.9347 649.498 9.912C650.001 8.872 650.72 8.07467 651.656 7.52C652.592 6.948 653.675 6.662 654.906 6.662C655.79 6.662 656.631 6.818 657.428 7.13C658.243 7.42467 658.91 7.84067 659.43 8.378L658.806 9.626C658.13 9.07133 657.48 8.67267 656.856 8.43C656.249 8.17 655.617 8.04 654.958 8.04C653.554 8.04 652.445 8.52533 651.63 9.496C650.815 10.4493 650.408 11.7753 650.408 13.474C650.408 15.138 650.807 16.438 651.604 17.374C652.419 18.31 653.537 18.778 654.958 18.778C655.617 18.778 656.249 18.6567 656.856 18.414C657.48 18.154 658.13 17.7553 658.806 17.218L659.43 18.44C658.875 18.9773 658.182 19.402 657.35 19.714C656.535 20.026 655.703 20.182 654.854 20.182ZM667.938 6.662C668.371 6.662 668.753 6.69667 669.082 6.766L669.004 8.196C668.675 8.12667 668.276 8.092 667.808 8.092C666.491 8.092 665.503 8.51667 664.844 9.366C664.203 10.198 663.882 11.1947 663.882 12.356V20H662.322V10.588C662.322 9.236 662.253 8.03133 662.114 6.974H663.622L663.83 9.392C664.159 8.508 664.688 7.832 665.416 7.364C666.161 6.896 667.002 6.662 667.938 6.662ZM671.965 13.292V13.37C671.965 15.1207 672.363 16.464 673.161 17.4C673.975 18.3187 675.154 18.778 676.697 18.778C678.257 18.778 679.687 18.2407 680.987 17.166L681.611 18.414C681.039 18.9513 680.311 19.3847 679.427 19.714C678.543 20.026 677.633 20.182 676.697 20.182C674.721 20.182 673.161 19.584 672.017 18.388C670.873 17.192 670.301 15.5453 670.301 13.448C670.301 12.1133 670.552 10.9347 671.055 9.912C671.575 8.872 672.294 8.07467 673.213 7.52C674.131 6.948 675.189 6.662 676.385 6.662C678.101 6.662 679.435 7.21667 680.389 8.326C681.359 9.43533 681.845 10.978 681.845 12.954V13.292H671.965ZM676.385 7.962C675.189 7.962 674.218 8.326 673.473 9.054C672.727 9.76467 672.259 10.77 672.069 12.07H680.337C680.233 10.7353 679.843 9.72133 679.167 9.028C678.491 8.31733 677.563 7.962 676.385 7.962ZM696.3 6.974V20H694.714V17.504C694.332 18.3707 693.752 19.038 692.972 19.506C692.209 19.9567 691.29 20.182 690.216 20.182C689.054 20.182 688.032 19.9133 687.148 19.376C686.281 18.8213 685.605 18.0413 685.12 17.036C684.652 16.0133 684.418 14.826 684.418 13.474C684.418 12.122 684.66 10.9347 685.146 9.912C685.631 8.872 686.307 8.07467 687.174 7.52C688.058 6.948 689.072 6.662 690.216 6.662C691.273 6.662 692.183 6.88733 692.946 7.338C693.726 7.78867 694.315 8.44733 694.714 9.314V6.974H696.3ZM690.45 18.778C691.802 18.778 692.85 18.31 693.596 17.374C694.341 16.438 694.714 15.1207 694.714 13.422C694.714 11.706 694.341 10.38 693.596 9.444C692.85 8.508 691.793 8.04 690.424 8.04C689.054 8.04 687.988 8.52533 687.226 9.496C686.463 10.4493 686.082 11.7753 686.082 13.474C686.082 15.1553 686.463 16.464 687.226 17.4C687.988 18.3187 689.063 18.778 690.45 18.778ZM704.849 20.182C702.734 20.182 701.062 19.6013 699.831 18.44L700.403 17.218C701.096 17.79 701.79 18.1973 702.483 18.44C703.194 18.6827 704.008 18.804 704.927 18.804C706.002 18.804 706.816 18.622 707.371 18.258C707.943 17.8767 708.229 17.3307 708.229 16.62C708.229 16.0307 708.038 15.5713 707.657 15.242C707.293 14.8953 706.686 14.618 705.837 14.41L703.627 13.916C702.587 13.6733 701.764 13.24 701.157 12.616C700.568 11.992 700.273 11.264 700.273 10.432C700.273 9.288 700.706 8.378 701.573 7.702C702.457 7.00867 703.627 6.662 705.083 6.662C706.002 6.662 706.851 6.80933 707.631 7.104C708.428 7.39867 709.087 7.82333 709.607 8.378L709.009 9.6C707.813 8.56 706.504 8.04 705.083 8.04C704.078 8.04 703.298 8.23933 702.743 8.638C702.188 9.03667 701.911 9.59133 701.911 10.302C701.911 10.8913 702.084 11.368 702.431 11.732C702.795 12.096 703.35 12.3647 704.095 12.538L706.331 13.084C708.671 13.604 709.841 14.7567 709.841 16.542C709.841 17.634 709.39 18.518 708.489 19.194C707.588 19.8527 706.374 20.182 704.849 20.182ZM714.291 13.292V13.37C714.291 15.1207 714.689 16.464 715.487 17.4C716.301 18.3187 717.48 18.778 719.023 18.778C720.583 18.778 722.013 18.2407 723.313 17.166L723.937 18.414C723.365 18.9513 722.637 19.3847 721.753 19.714C720.869 20.026 719.959 20.182 719.023 20.182C717.047 20.182 715.487 19.584 714.343 18.388C713.199 17.192 712.627 15.5453 712.627 13.448C712.627 12.1133 712.878 10.9347 713.381 9.912C713.901 8.872 714.62 8.07467 715.539 7.52C716.457 6.948 717.515 6.662 718.711 6.662C720.427 6.662 721.761 7.21667 722.715 8.326C723.685 9.43533 724.171 10.978 724.171 12.954V13.292H714.291ZM718.711 7.962C717.515 7.962 716.544 8.326 715.799 9.054C715.053 9.76467 714.585 10.77 714.395 12.07H722.663C722.559 10.7353 722.169 9.72133 721.493 9.028C720.817 8.31733 719.889 7.962 718.711 7.962ZM739.377 20.182C738.181 20.182 737.124 19.9047 736.205 19.35C735.304 18.7953 734.602 18.0067 734.099 16.984C733.614 15.9613 733.371 14.774 733.371 13.422C733.371 12.07 733.614 10.8827 734.099 9.86C734.602 8.83733 735.304 8.04867 736.205 7.494C737.124 6.93933 738.181 6.662 739.377 6.662C740.556 6.662 741.596 6.93933 742.497 7.494C743.398 8.04867 744.092 8.83733 744.577 9.86C745.08 10.8827 745.331 12.07 745.331 13.422C745.331 14.774 745.08 15.9613 744.577 16.984C744.092 18.0067 743.398 18.7953 742.497 19.35C741.596 19.9047 740.556 20.182 739.377 20.182ZM739.351 18.778C740.738 18.778 741.804 18.3187 742.549 17.4C743.312 16.464 743.693 15.138 743.693 13.422C743.693 11.7233 743.312 10.406 742.549 9.47C741.786 8.51667 740.729 8.04 739.377 8.04C738.008 8.04 736.942 8.51667 736.179 9.47C735.416 10.406 735.035 11.7233 735.035 13.422C735.035 15.1553 735.408 16.4813 736.153 17.4C736.898 18.3187 737.964 18.778 739.351 18.778ZM759.281 6.974V20H757.747V17.634C757.331 18.466 756.741 19.0987 755.979 19.532C755.216 19.9653 754.341 20.182 753.353 20.182C751.827 20.182 750.675 19.7573 749.895 18.908C749.115 18.0587 748.725 16.802 748.725 15.138V6.974H750.285V15.034C750.285 16.3167 750.545 17.2613 751.065 17.868C751.585 18.4747 752.391 18.778 753.483 18.778C754.765 18.778 755.788 18.3793 756.551 17.582C757.313 16.7673 757.695 15.6927 757.695 14.358V6.974H759.281ZM769.221 6.662C769.655 6.662 770.036 6.69667 770.365 6.766L770.287 8.196C769.958 8.12667 769.559 8.092 769.091 8.092C767.774 8.092 766.786 8.51667 766.127 9.366C765.486 10.198 765.165 11.1947 765.165 12.356V20H763.605V10.588C763.605 9.236 763.536 8.03133 763.397 6.974H764.905L765.113 9.392C765.443 8.508 765.971 7.832 766.699 7.364C767.445 6.896 768.285 6.662 769.221 6.662ZM14.972 56H13.308L10.994 49.838C10.6994 49.006 10.292 48.4513 9.77203 48.174C9.25203 47.8793 8.49803 47.732 7.51003 47.732H2.33603V56H0.724031V37.488H7.87403C9.79803 37.488 11.2887 37.93 12.346 38.814C13.4034 39.6807 13.932 40.9287 13.932 42.558C13.932 43.754 13.6114 44.7593 12.97 45.574C12.346 46.3887 11.4447 46.9607 10.266 47.29C10.8034 47.3767 11.2627 47.602 11.644 47.966C12.0254 48.33 12.346 48.8673 12.606 49.578L14.972 56ZM7.77003 46.328C10.8034 46.328 12.32 45.0627 12.32 42.532C12.32 40.088 10.8034 38.866 7.77003 38.866H2.31003V46.328H7.77003ZM26.0375 56.208C24.3561 56.208 22.8915 55.8267 21.6435 55.064C20.4128 54.3013 19.4595 53.2093 18.7835 51.788C18.1248 50.3667 17.7955 48.6853 17.7955 46.744C17.7955 44.8027 18.1248 43.1213 18.7835 41.7C19.4421 40.2787 20.3868 39.1867 21.6175 38.424C22.8655 37.6613 24.3388 37.28 26.0375 37.28C27.7361 37.28 29.2095 37.6613 30.4575 38.424C31.7055 39.1867 32.6588 40.2787 33.3175 41.7C33.9761 43.104 34.3055 44.7767 34.3055 46.718C34.3055 48.6593 33.9675 50.3493 33.2915 51.788C32.6328 53.2093 31.6795 54.3013 30.4315 55.064C29.2008 55.8267 27.7361 56.208 26.0375 56.208ZM26.0375 54.778C28.1175 54.778 29.7295 54.076 30.8735 52.672C32.0348 51.268 32.6155 49.2833 32.6155 46.718C32.6155 44.1527 32.0435 42.1767 30.8995 40.79C29.7555 39.4033 28.1348 38.71 26.0375 38.71C23.9575 38.71 22.3368 39.412 21.1755 40.816C20.0315 42.2027 19.4595 44.17 19.4595 46.718C19.4595 49.266 20.0315 51.2507 21.1755 52.672C22.3368 54.076 23.9575 54.778 26.0375 54.778ZM50.0615 51.06H40.0775L37.9455 56H36.2815L44.3415 37.488H45.7975L53.8315 56H52.1675L50.0615 51.06ZM49.4375 49.656L45.0695 39.438L40.6755 49.656H49.4375ZM62.5071 56.208C61.0511 56.208 59.7598 56.0173 58.6331 55.636C57.5238 55.2373 56.5358 54.622 55.6691 53.79L56.3451 52.516C57.2638 53.3307 58.1911 53.9113 59.1271 54.258C60.0805 54.6047 61.2071 54.778 62.5071 54.778C64.0671 54.778 65.2805 54.4573 66.1471 53.816C67.0138 53.1747 67.4471 52.2733 67.4471 51.112C67.4471 50.436 67.2305 49.89 66.7971 49.474C66.3811 49.0407 65.8438 48.7027 65.1851 48.46C64.5438 48.2173 63.6858 47.9747 62.6111 47.732C61.1898 47.42 60.0285 47.0993 59.1271 46.77C58.2431 46.4233 57.4978 45.912 56.8911 45.236C56.2845 44.56 55.9811 43.6587 55.9811 42.532C55.9811 41.492 56.2498 40.5733 56.7871 39.776C57.3245 38.9787 58.0871 38.3633 59.0751 37.93C60.0805 37.4967 61.2418 37.28 62.5591 37.28C63.8245 37.28 64.9945 37.488 66.0691 37.904C67.1438 38.3027 68.0711 38.9007 68.8511 39.698L68.1751 40.972C67.3085 40.192 66.4245 39.62 65.5231 39.256C64.6218 38.892 63.6338 38.71 62.5591 38.71C60.9991 38.71 59.7771 39.048 58.8931 39.724C58.0265 40.4 57.5931 41.3273 57.5931 42.506C57.5931 43.5287 57.9745 44.2913 58.7371 44.794C59.4998 45.2967 60.6178 45.7213 62.0911 46.068L62.8451 46.25C64.2318 46.5793 65.3325 46.9 66.1471 47.212C66.9618 47.524 67.6551 47.992 68.2271 48.616C68.7991 49.24 69.0851 50.072 69.0851 51.112C69.0851 52.1173 68.8165 53.01 68.2791 53.79C67.7418 54.5527 66.9705 55.1507 65.9651 55.584C64.9771 56 63.8245 56.208 62.5071 56.208ZM85.1834 42.662C86.3274 42.662 87.3414 42.9393 88.2254 43.494C89.1094 44.0487 89.7854 44.8287 90.2534 45.834C90.7387 46.8393 90.9814 48.018 90.9814 49.37C90.9814 50.722 90.7387 51.918 90.2534 52.958C89.7681 53.9807 89.0834 54.778 88.1994 55.35C87.3327 55.9047 86.3274 56.182 85.1834 56.182C84.1087 56.182 83.1814 55.948 82.4014 55.48C81.6387 55.012 81.0667 54.336 80.6854 53.452V56H79.0994V36.864H80.6594V45.418C81.0407 44.5167 81.6214 43.832 82.4014 43.364C83.1814 42.896 84.1087 42.662 85.1834 42.662ZM85.0014 54.778C86.3534 54.778 87.4107 54.3013 88.1734 53.348C88.9361 52.3947 89.3174 51.0687 89.3174 49.37C89.3174 47.6887 88.9361 46.38 88.1734 45.444C87.4107 44.508 86.3447 44.04 84.9754 44.04C83.6061 44.04 82.5487 44.508 81.8034 45.444C81.0581 46.38 80.6854 47.706 80.6854 49.422C80.6854 51.138 81.0581 52.464 81.8034 53.4C82.5487 54.3187 83.6147 54.778 85.0014 54.778ZM105.384 42.974L99.2478 57.352C98.6411 58.7733 97.8784 59.8133 96.9598 60.472C96.0584 61.148 94.9231 61.6247 93.5538 61.902L93.2418 60.654C94.4898 60.3593 95.4258 59.978 96.0498 59.51C96.6911 59.042 97.2284 58.3053 97.6618 57.3L98.2078 56.026L92.6438 42.974H94.3338L99.0398 54.414L103.772 42.974H105.384ZM126.425 54.596V56H114.751V54.804L121.329 47.446C122.265 46.3713 122.941 45.4267 123.357 44.612C123.773 43.78 123.981 42.9567 123.981 42.142C123.981 41.0327 123.66 40.1833 123.019 39.594C122.395 38.9873 121.494 38.684 120.315 38.684C118.495 38.684 116.718 39.4293 114.985 40.92L114.309 39.646C115.037 38.9353 115.947 38.3633 117.039 37.93C118.131 37.4967 119.223 37.28 120.315 37.28C121.962 37.28 123.253 37.7133 124.189 38.58C125.142 39.4293 125.619 40.5907 125.619 42.064C125.619 43.1213 125.368 44.1527 124.865 45.158C124.38 46.1633 123.582 47.2813 122.473 48.512L116.909 54.596H126.425ZM132.057 53.738V56H129.847V53.738H132.057ZM147.128 54.596V56H137.326V54.596H141.434V39.62L137.612 42.09V40.452L142.136 37.488H143.046V54.596H147.128ZM169.241 42.974V56H167.655V53.504C167.274 54.3707 166.693 55.038 165.913 55.506C165.151 55.9567 164.232 56.182 163.157 56.182C161.996 56.182 160.973 55.9133 160.089 55.376C159.223 54.8213 158.547 54.0413 158.061 53.036C157.593 52.0133 157.359 50.826 157.359 49.474C157.359 48.122 157.602 46.9347 158.087 45.912C158.573 44.872 159.249 44.0747 160.115 43.52C160.999 42.948 162.013 42.662 163.157 42.662C164.215 42.662 165.125 42.8873 165.887 43.338C166.667 43.7887 167.257 44.4473 167.655 45.314V42.974H169.241ZM163.391 54.778C164.743 54.778 165.792 54.31 166.537 53.374C167.283 52.438 167.655 51.1207 167.655 49.422C167.655 47.706 167.283 46.38 166.537 45.444C165.792 44.508 164.735 44.04 163.365 44.04C161.996 44.04 160.93 44.5253 160.167 45.496C159.405 46.4493 159.023 47.7753 159.023 49.474C159.023 51.1553 159.405 52.464 160.167 53.4C160.93 54.3187 162.005 54.778 163.391 54.778ZM179.611 42.662C182.748 42.662 184.317 44.3433 184.317 47.706V56H182.731V47.81C182.731 46.51 182.462 45.5567 181.925 44.95C181.405 44.3433 180.581 44.04 179.455 44.04C178.155 44.04 177.106 44.4387 176.309 45.236C175.511 46.0333 175.113 47.108 175.113 48.46V56H173.553V46.588C173.553 45.236 173.483 44.0313 173.345 42.974H174.853L175.061 45.366C175.459 44.482 176.057 43.8147 176.855 43.364C177.652 42.896 178.571 42.662 179.611 42.662ZM199.634 36.864V56H198.048V53.504C197.666 54.3707 197.086 55.038 196.306 55.506C195.543 55.9567 194.624 56.182 193.55 56.182C192.406 56.182 191.392 55.9047 190.508 55.35C189.641 54.778 188.965 53.9807 188.48 52.958C187.994 51.918 187.752 50.722 187.752 49.37C187.752 48.018 187.986 46.8393 188.454 45.834C188.939 44.8113 189.615 44.0313 190.482 43.494C191.366 42.9393 192.388 42.662 193.55 42.662C194.607 42.662 195.517 42.8873 196.28 43.338C197.06 43.7887 197.649 44.4473 198.048 45.314V36.864H199.634ZM193.758 54.778C195.127 54.778 196.184 54.31 196.93 53.374C197.675 52.438 198.048 51.1207 198.048 49.422C198.048 47.7233 197.675 46.406 196.93 45.47C196.184 44.5167 195.136 44.04 193.784 44.04C192.397 44.04 191.322 44.508 190.56 45.444C189.797 46.38 189.416 47.6887 189.416 49.37C189.416 51.0687 189.797 52.3947 190.56 53.348C191.322 54.3013 192.388 54.778 193.758 54.778ZM215.746 56.182C214.55 56.182 213.493 55.9047 212.574 55.35C211.673 54.7953 210.971 54.0067 210.468 52.984C209.983 51.9613 209.74 50.774 209.74 49.422C209.74 48.07 209.983 46.8827 210.468 45.86C210.971 44.8373 211.673 44.0487 212.574 43.494C213.493 42.9393 214.55 42.662 215.746 42.662C216.925 42.662 217.965 42.9393 218.866 43.494C219.767 44.0487 220.461 44.8373 220.946 45.86C221.449 46.8827 221.7 48.07 221.7 49.422C221.7 50.774 221.449 51.9613 220.946 52.984C220.461 54.0067 219.767 54.7953 218.866 55.35C217.965 55.9047 216.925 56.182 215.746 56.182ZM215.72 54.778C217.107 54.778 218.173 54.3187 218.918 53.4C219.681 52.464 220.062 51.138 220.062 49.422C220.062 47.7233 219.681 46.406 218.918 45.47C218.155 44.5167 217.098 44.04 215.746 44.04C214.377 44.04 213.311 44.5167 212.548 45.47C211.785 46.406 211.404 47.7233 211.404 49.422C211.404 51.1553 211.777 52.4813 212.522 53.4C213.267 54.3187 214.333 54.778 215.72 54.778ZM235.65 42.974V56H234.116V53.634C233.7 54.466 233.11 55.0987 232.348 55.532C231.585 55.9653 230.71 56.182 229.722 56.182C228.196 56.182 227.044 55.7573 226.264 54.908C225.484 54.0587 225.094 52.802 225.094 51.138V42.974H226.654V51.034C226.654 52.3167 226.914 53.2613 227.434 53.868C227.954 54.4747 228.76 54.778 229.852 54.778C231.134 54.778 232.157 54.3793 232.92 53.582C233.682 52.7673 234.064 51.6927 234.064 50.358V42.974H235.65ZM245.59 42.662C246.024 42.662 246.405 42.6967 246.734 42.766L246.656 44.196C246.327 44.1267 245.928 44.092 245.46 44.092C244.143 44.092 243.155 44.5167 242.496 45.366C241.855 46.198 241.534 47.1947 241.534 48.356V56H239.974V46.588C239.974 45.236 239.905 44.0313 239.766 42.974H241.274L241.482 45.392C241.812 44.508 242.34 43.832 243.068 43.364C243.814 42.896 244.654 42.662 245.59 42.662ZM261.282 42.662C261.715 42.662 262.096 42.6967 262.426 42.766L262.348 44.196C262.018 44.1267 261.62 44.092 261.152 44.092C259.834 44.092 258.846 44.5167 258.188 45.366C257.546 46.198 257.226 47.1947 257.226 48.356V56H255.666V46.588C255.666 45.236 255.596 44.0313 255.458 42.974H256.966L257.174 45.392C257.503 44.508 258.032 43.832 258.76 43.364C259.505 42.896 260.346 42.662 261.282 42.662ZM265.308 49.292V49.37C265.308 51.1207 265.707 52.464 266.504 53.4C267.319 54.3187 268.498 54.778 270.04 54.778C271.6 54.778 273.03 54.2407 274.33 53.166L274.954 54.414C274.382 54.9513 273.654 55.3847 272.77 55.714C271.886 56.026 270.976 56.182 270.04 56.182C268.064 56.182 266.504 55.584 265.36 54.388C264.216 53.192 263.644 51.5453 263.644 49.448C263.644 48.1133 263.896 46.9347 264.398 45.912C264.918 44.872 265.638 44.0747 266.556 43.52C267.475 42.948 268.532 42.662 269.728 42.662C271.444 42.662 272.779 43.2167 273.732 44.326C274.703 45.4353 275.188 46.978 275.188 48.954V49.292H265.308ZM269.728 43.962C268.532 43.962 267.562 44.326 266.816 45.054C266.071 45.7647 265.603 46.77 265.412 48.07H273.68C273.576 46.7353 273.186 45.7213 272.51 45.028C271.834 44.3173 270.907 43.962 269.728 43.962ZM289.517 42.974L283.927 56H282.289L276.777 42.974H278.467L283.173 54.414L287.905 42.974H289.517ZM292.832 49.292V49.37C292.832 51.1207 293.23 52.464 294.028 53.4C294.842 54.3187 296.021 54.778 297.564 54.778C299.124 54.778 300.554 54.2407 301.854 53.166L302.478 54.414C301.906 54.9513 301.178 55.3847 300.294 55.714C299.41 56.026 298.5 56.182 297.564 56.182C295.588 56.182 294.028 55.584 292.884 54.388C291.74 53.192 291.168 51.5453 291.168 49.448C291.168 48.1133 291.419 46.9347 291.922 45.912C292.442 44.872 293.161 44.0747 294.08 43.52C294.998 42.948 296.056 42.662 297.252 42.662C298.968 42.662 300.302 43.2167 301.256 44.326C302.226 45.4353 302.712 46.978 302.712 48.954V49.292H292.832ZM297.252 43.962C296.056 43.962 295.085 44.326 294.34 45.054C293.594 45.7647 293.126 46.77 292.936 48.07H301.204C301.1 46.7353 300.71 45.7213 300.034 45.028C299.358 44.3173 298.43 43.962 297.252 43.962ZM312.175 42.662C315.312 42.662 316.881 44.3433 316.881 47.706V56H315.295V47.81C315.295 46.51 315.026 45.5567 314.489 44.95C313.969 44.3433 313.146 44.04 312.019 44.04C310.719 44.04 309.67 44.4387 308.873 45.236C308.076 46.0333 307.677 47.108 307.677 48.46V56H306.117V46.588C306.117 45.236 306.048 44.0313 305.909 42.974H307.417L307.625 45.366C308.024 44.482 308.622 43.8147 309.419 43.364C310.216 42.896 311.135 42.662 312.175 42.662ZM331.626 42.974V56H330.092V53.634C329.676 54.466 329.087 55.0987 328.324 55.532C327.562 55.9653 326.686 56.182 325.698 56.182C324.173 56.182 323.02 55.7573 322.24 54.908C321.46 54.0587 321.07 52.802 321.07 51.138V42.974H322.63V51.034C322.63 52.3167 322.89 53.2613 323.41 53.868C323.93 54.4747 324.736 54.778 325.828 54.778C327.111 54.778 328.134 54.3793 328.896 53.582C329.659 52.7673 330.04 51.6927 330.04 50.358V42.974H331.626ZM336.783 49.292V49.37C336.783 51.1207 337.182 52.464 337.979 53.4C338.794 54.3187 339.972 54.778 341.515 54.778C343.075 54.778 344.505 54.2407 345.805 53.166L346.429 54.414C345.857 54.9513 345.129 55.3847 344.245 55.714C343.361 56.026 342.451 56.182 341.515 56.182C339.539 56.182 337.979 55.584 336.835 54.388C335.691 53.192 335.119 51.5453 335.119 49.448C335.119 48.1133 335.37 46.9347 335.873 45.912C336.393 44.872 337.112 44.0747 338.031 43.52C338.95 42.948 340.007 42.662 341.203 42.662C342.919 42.662 344.254 43.2167 345.207 44.326C346.178 45.4353 346.663 46.978 346.663 48.954V49.292H336.783ZM341.203 43.962C340.007 43.962 339.036 44.326 338.291 45.054C337.546 45.7647 337.078 46.77 336.887 48.07H345.155C345.051 46.7353 344.661 45.7213 343.985 45.028C343.309 44.3173 342.382 43.962 341.203 43.962ZM361.869 56.182C360.673 56.182 359.616 55.9047 358.697 55.35C357.796 54.7953 357.094 54.0067 356.591 52.984C356.106 51.9613 355.863 50.774 355.863 49.422C355.863 48.07 356.106 46.8827 356.591 45.86C357.094 44.8373 357.796 44.0487 358.697 43.494C359.616 42.9393 360.673 42.662 361.869 42.662C363.048 42.662 364.088 42.9393 364.989 43.494C365.89 44.0487 366.584 44.8373 367.069 45.86C367.572 46.8827 367.823 48.07 367.823 49.422C367.823 50.774 367.572 51.9613 367.069 52.984C366.584 54.0067 365.89 54.7953 364.989 55.35C364.088 55.9047 363.048 56.182 361.869 56.182ZM361.843 54.778C363.23 54.778 364.296 54.3187 365.041 53.4C365.804 52.464 366.185 51.138 366.185 49.422C366.185 47.7233 365.804 46.406 365.041 45.47C364.278 44.5167 363.221 44.04 361.869 44.04C360.5 44.04 359.434 44.5167 358.671 45.47C357.908 46.406 357.527 47.7233 357.527 49.422C357.527 51.1553 357.9 52.4813 358.645 53.4C359.39 54.3187 360.456 54.778 361.843 54.778ZM377.353 42.662C380.49 42.662 382.059 44.3433 382.059 47.706V56H380.473V47.81C380.473 46.51 380.204 45.5567 379.667 44.95C379.147 44.3433 378.323 44.04 377.197 44.04C375.897 44.04 374.848 44.4387 374.051 45.236C373.253 46.0333 372.855 47.108 372.855 48.46V56H371.295V46.588C371.295 45.236 371.225 44.0313 371.087 42.974H372.595L372.803 45.366C373.201 44.482 373.799 43.8147 374.597 43.364C375.394 42.896 376.313 42.662 377.353 42.662ZM393.187 37.488H404.341V38.866H394.799V45.886H403.821V47.316H394.799V56H393.187V37.488ZM418.247 42.974V56H416.661V53.504C416.28 54.3707 415.699 55.038 414.919 55.506C414.156 55.9567 413.238 56.182 412.163 56.182C411.002 56.182 409.979 55.9133 409.095 55.376C408.228 54.8213 407.552 54.0413 407.067 53.036C406.599 52.0133 406.365 50.826 406.365 49.474C406.365 48.122 406.608 46.9347 407.093 45.912C407.578 44.872 408.254 44.0747 409.121 43.52C410.005 42.948 411.019 42.662 412.163 42.662C413.22 42.662 414.13 42.8873 414.893 43.338C415.673 43.7887 416.262 44.4473 416.661 45.314V42.974H418.247ZM412.397 54.778C413.749 54.778 414.798 54.31 415.543 53.374C416.288 52.438 416.661 51.1207 416.661 49.422C416.661 47.706 416.288 46.38 415.543 45.444C414.798 44.508 413.74 44.04 412.371 44.04C411.002 44.04 409.936 44.5253 409.173 45.496C408.41 46.4493 408.029 47.7753 408.029 49.474C408.029 51.1553 408.41 52.464 409.173 53.4C409.936 54.3187 411.01 54.778 412.397 54.778ZM427.836 56.182C426.606 56.182 425.531 55.9047 424.612 55.35C423.694 54.7953 422.983 54.0153 422.48 53.01C421.978 51.9873 421.726 50.8087 421.726 49.474C421.726 48.122 421.978 46.9347 422.48 45.912C422.983 44.872 423.702 44.0747 424.638 43.52C425.574 42.948 426.658 42.662 427.888 42.662C428.772 42.662 429.613 42.818 430.41 43.13C431.225 43.4247 431.892 43.8407 432.412 44.378L431.788 45.626C431.112 45.0713 430.462 44.6727 429.838 44.43C429.232 44.17 428.599 44.04 427.94 44.04C426.536 44.04 425.427 44.5253 424.612 45.496C423.798 46.4493 423.39 47.7753 423.39 49.474C423.39 51.138 423.789 52.438 424.586 53.374C425.401 54.31 426.519 54.778 427.94 54.778C428.599 54.778 429.232 54.6567 429.838 54.414C430.462 54.154 431.112 53.7553 431.788 53.218L432.412 54.44C431.858 54.9773 431.164 55.402 430.332 55.714C429.518 56.026 428.686 56.182 427.836 56.182ZM436.136 49.292V49.37C436.136 51.1207 436.535 52.464 437.332 53.4C438.147 54.3187 439.326 54.778 440.868 54.778C442.428 54.778 443.858 54.2407 445.158 53.166L445.782 54.414C445.21 54.9513 444.482 55.3847 443.598 55.714C442.714 56.026 441.804 56.182 440.868 56.182C438.892 56.182 437.332 55.584 436.188 54.388C435.044 53.192 434.472 51.5453 434.472 49.448C434.472 48.1133 434.724 46.9347 435.226 45.912C435.746 44.872 436.466 44.0747 437.384 43.52C438.303 42.948 439.36 42.662 440.556 42.662C442.272 42.662 443.607 43.2167 444.56 44.326C445.531 45.4353 446.016 46.978 446.016 48.954V49.292H436.136ZM440.556 43.962C439.36 43.962 438.39 44.326 437.644 45.054C436.899 45.7647 436.431 46.77 436.24 48.07H444.508C444.404 46.7353 444.014 45.7213 443.338 45.028C442.662 44.3173 441.735 43.962 440.556 43.962ZM455.506 42.662C456.65 42.662 457.664 42.9393 458.548 43.494C459.432 44.0487 460.108 44.8287 460.576 45.834C461.061 46.8393 461.304 48.018 461.304 49.37C461.304 50.722 461.061 51.918 460.576 52.958C460.09 53.9807 459.406 54.778 458.522 55.35C457.655 55.9047 456.65 56.182 455.506 56.182C454.431 56.182 453.504 55.948 452.724 55.48C451.961 55.012 451.389 54.336 451.008 53.452V56H449.422V36.864H450.982V45.418C451.363 44.5167 451.944 43.832 452.724 43.364C453.504 42.896 454.431 42.662 455.506 42.662ZM455.324 54.778C456.676 54.778 457.733 54.3013 458.496 53.348C459.258 52.3947 459.64 51.0687 459.64 49.37C459.64 47.6887 459.258 46.38 458.496 45.444C457.733 44.508 456.667 44.04 455.298 44.04C453.928 44.04 452.871 44.508 452.126 45.444C451.38 46.38 451.008 47.706 451.008 49.422C451.008 51.138 451.38 52.464 452.126 53.4C452.871 54.3187 453.937 54.778 455.324 54.778ZM469.957 56.182C468.761 56.182 467.704 55.9047 466.785 55.35C465.884 54.7953 465.182 54.0067 464.679 52.984C464.194 51.9613 463.951 50.774 463.951 49.422C463.951 48.07 464.194 46.8827 464.679 45.86C465.182 44.8373 465.884 44.0487 466.785 43.494C467.704 42.9393 468.761 42.662 469.957 42.662C471.136 42.662 472.176 42.9393 473.077 43.494C473.978 44.0487 474.672 44.8373 475.157 45.86C475.66 46.8827 475.911 48.07 475.911 49.422C475.911 50.774 475.66 51.9613 475.157 52.984C474.672 54.0067 473.978 54.7953 473.077 55.35C472.176 55.9047 471.136 56.182 469.957 56.182ZM469.931 54.778C471.318 54.778 472.384 54.3187 473.129 53.4C473.892 52.464 474.273 51.138 474.273 49.422C474.273 47.7233 473.892 46.406 473.129 45.47C472.366 44.5167 471.309 44.04 469.957 44.04C468.588 44.04 467.522 44.5167 466.759 45.47C465.996 46.406 465.615 47.7233 465.615 49.422C465.615 51.1553 465.988 52.4813 466.733 53.4C467.478 54.3187 468.544 54.778 469.931 54.778ZM484.557 56.182C483.361 56.182 482.303 55.9047 481.385 55.35C480.483 54.7953 479.781 54.0067 479.279 52.984C478.793 51.9613 478.551 50.774 478.551 49.422C478.551 48.07 478.793 46.8827 479.279 45.86C479.781 44.8373 480.483 44.0487 481.385 43.494C482.303 42.9393 483.361 42.662 484.557 42.662C485.735 42.662 486.775 42.9393 487.677 43.494C488.578 44.0487 489.271 44.8373 489.757 45.86C490.259 46.8827 490.511 48.07 490.511 49.422C490.511 50.774 490.259 51.9613 489.757 52.984C489.271 54.0067 488.578 54.7953 487.677 55.35C486.775 55.9047 485.735 56.182 484.557 56.182ZM484.531 54.778C485.917 54.778 486.983 54.3187 487.729 53.4C488.491 52.464 488.873 51.138 488.873 49.422C488.873 47.7233 488.491 46.406 487.729 45.47C486.966 44.5167 485.909 44.04 484.557 44.04C483.187 44.04 482.121 44.5167 481.359 45.47C480.596 46.406 480.215 47.7233 480.215 49.422C480.215 51.1553 480.587 52.4813 481.333 53.4C482.078 54.3187 483.144 54.778 484.531 54.778ZM502.718 56L495.542 49.656V56H493.982V36.864H495.542V49.032L502.094 42.974H504.148L497.336 49.24L504.876 56H502.718ZM519.642 42.662C520.786 42.662 521.8 42.9393 522.684 43.494C523.568 44.0487 524.244 44.8287 524.712 45.834C525.198 46.8393 525.44 48.018 525.44 49.37C525.44 50.722 525.198 51.918 524.712 52.958C524.227 53.9807 523.542 54.778 522.658 55.35C521.792 55.9047 520.786 56.182 519.642 56.182C518.568 56.182 517.64 55.948 516.86 55.48C516.098 55.012 515.526 54.336 515.144 53.452V56H513.558V36.864H515.118V45.418C515.5 44.5167 516.08 43.832 516.86 43.364C517.64 42.896 518.568 42.662 519.642 42.662ZM519.46 54.778C520.812 54.778 521.87 54.3013 522.632 53.348C523.395 52.3947 523.776 51.0687 523.776 49.37C523.776 47.6887 523.395 46.38 522.632 45.444C521.87 44.508 520.804 44.04 519.434 44.04C518.065 44.04 517.008 44.508 516.262 45.444C515.517 46.38 515.144 47.706 515.144 49.422C515.144 51.138 515.517 52.464 516.262 53.4C517.008 54.3187 518.074 54.778 519.46 54.778ZM539.843 42.974L533.707 57.352C533.1 58.7733 532.337 59.8133 531.419 60.472C530.517 61.148 529.382 61.6247 528.013 61.902L527.701 60.654C528.949 60.3593 529.885 59.978 530.509 59.51C531.15 59.042 531.687 58.3053 532.121 57.3L532.667 56.026L527.103 42.974H528.793L533.499 54.414L538.231 42.974H539.843ZM560.234 54.596V56H550.432V54.596H554.54V39.62L550.718 42.09V40.452L555.242 37.488H556.152V54.596H560.234ZM572.704 46.484C573.796 46.796 574.628 47.342 575.2 48.122C575.772 48.8847 576.058 49.8467 576.058 51.008C576.058 52.6027 575.529 53.868 574.472 54.804C573.432 55.7227 572.01 56.182 570.208 56.182C569.029 56.182 567.902 55.974 566.828 55.558C565.753 55.142 564.834 54.5613 564.072 53.816L564.748 52.542C565.597 53.2873 566.464 53.8507 567.348 54.232C568.249 54.596 569.202 54.778 570.208 54.778C571.56 54.778 572.6 54.4573 573.328 53.816C574.073 53.1573 574.446 52.2213 574.446 51.008C574.446 48.5467 572.92 47.316 569.87 47.316H567.894V45.886H569.48C570.936 45.886 572.054 45.5567 572.834 44.898C573.631 44.222 574.03 43.26 574.03 42.012C574.03 40.9547 573.709 40.14 573.068 39.568C572.426 38.9787 571.525 38.684 570.364 38.684C568.544 38.684 566.767 39.4293 565.034 40.92L564.358 39.646C565.103 38.9007 566.004 38.32 567.062 37.904C568.136 37.488 569.246 37.28 570.39 37.28C572.002 37.28 573.284 37.7047 574.238 38.554C575.191 39.386 575.668 40.5127 575.668 41.934C575.668 43.0087 575.399 43.9533 574.862 44.768C574.342 45.5653 573.622 46.1373 572.704 46.484ZM585.902 56.208C583.822 56.208 582.236 55.4107 581.144 53.816C580.069 52.204 579.532 49.8467 579.532 46.744C579.532 43.6413 580.069 41.2927 581.144 39.698C582.218 38.086 583.804 37.28 585.902 37.28C587.999 37.28 589.585 38.0773 590.66 39.672C591.734 41.2667 592.272 43.6153 592.272 46.718C592.272 49.8207 591.726 52.178 590.634 53.79C589.559 55.402 587.982 56.208 585.902 56.208ZM585.902 54.778C587.496 54.778 588.675 54.128 589.438 52.828C590.218 51.5107 590.608 49.474 590.608 46.718C590.608 43.962 590.226 41.9427 589.464 40.66C588.701 39.36 587.514 38.71 585.902 38.71C584.307 38.71 583.12 39.36 582.34 40.66C581.577 41.96 581.196 43.9793 581.196 46.718C581.196 49.4567 581.577 51.4847 582.34 52.802C583.12 54.1193 584.307 54.778 585.902 54.778ZM601.491 56.208C599.411 56.208 597.825 55.4107 596.733 53.816C595.659 52.204 595.121 49.8467 595.121 46.744C595.121 43.6413 595.659 41.2927 596.733 39.698C597.808 38.086 599.394 37.28 601.491 37.28C603.589 37.28 605.175 38.0773 606.249 39.672C607.324 41.2667 607.861 43.6153 607.861 46.718C607.861 49.8207 607.315 52.178 606.223 53.79C605.149 55.402 603.571 56.208 601.491 56.208ZM601.491 54.778C603.086 54.778 604.265 54.128 605.027 52.828C605.807 51.5107 606.197 49.474 606.197 46.718C606.197 43.962 605.816 41.9427 605.053 40.66C604.291 39.36 603.103 38.71 601.491 38.71C599.897 38.71 598.709 39.36 597.929 40.66C597.167 41.96 596.785 43.9793 596.785 46.718C596.785 49.4567 597.167 51.4847 597.929 52.802C598.709 54.1193 599.897 54.778 601.491 54.778ZM615.209 48.616C613.84 48.616 612.774 48.1393 612.011 47.186C611.249 46.2327 610.867 44.82 610.867 42.948C610.867 41.076 611.249 39.672 612.011 38.736C612.774 37.7827 613.84 37.306 615.209 37.306C616.596 37.306 617.671 37.7827 618.433 38.736C619.213 39.672 619.603 41.076 619.603 42.948C619.603 44.82 619.213 46.2327 618.433 47.186C617.653 48.1393 616.579 48.616 615.209 48.616ZM615.235 56L625.921 37.488H627.585L616.899 56H615.235ZM615.209 47.368C616.18 47.368 616.891 47.0127 617.341 46.302C617.809 45.5913 618.043 44.4733 618.043 42.948C618.043 41.44 617.809 40.3307 617.341 39.62C616.891 38.892 616.18 38.528 615.209 38.528C614.273 38.528 613.571 38.892 613.103 39.62C612.635 40.3307 612.401 41.44 612.401 42.948C612.401 44.4733 612.627 45.5913 613.077 46.302C613.545 47.0127 614.256 47.368 615.209 47.368ZM627.585 56.182C626.216 56.182 625.141 55.7053 624.361 54.752C623.599 53.7987 623.217 52.386 623.217 50.514C623.217 48.6247 623.599 47.212 624.361 46.276C625.124 45.34 626.199 44.872 627.585 44.872C628.972 44.872 630.047 45.34 630.809 46.276C631.572 47.212 631.953 48.6247 631.953 50.514C631.953 52.386 631.563 53.7987 630.783 54.752C630.021 55.7053 628.955 56.182 627.585 56.182ZM627.585 54.934C628.539 54.934 629.241 54.5787 629.691 53.868C630.159 53.1573 630.393 52.0393 630.393 50.514C630.393 49.006 630.159 47.8967 629.691 47.186C629.241 46.4753 628.539 46.12 627.585 46.12C626.632 46.12 625.921 46.4753 625.453 47.186C625.003 47.8967 624.777 49.006 624.777 50.514C624.777 52.0393 625.003 53.1573 625.453 53.868C625.921 54.5787 626.632 54.934 627.585 54.934ZM635.376 37.488H637.378L636.884 51.45H635.896L635.376 37.488ZM637.508 53.738V56H635.298V53.738H637.508ZM643.272 53.738V55.402C643.272 56.0607 643.168 56.6673 642.96 57.222C642.752 57.7767 642.405 58.2967 641.92 58.782L641.088 58.132C641.677 57.4733 642.006 56.7627 642.076 56H641.062V53.738H643.272ZM653.816 42.974H655.376V56H653.816V42.974ZM655.688 37.592V39.62H653.582V37.592H655.688ZM661.942 44.248V51.996C661.942 53.036 662.142 53.7553 662.54 54.154C662.939 54.5527 663.528 54.752 664.308 54.752C664.794 54.752 665.262 54.674 665.712 54.518V55.948C665.158 56.0867 664.594 56.156 664.022 56.156C662.878 56.156 661.977 55.8353 661.318 55.194C660.677 54.5527 660.356 53.5907 660.356 52.308V44.248H657.782V42.974H660.356V39.516L661.942 38.918V42.974H665.79V44.248H661.942ZM670.109 37.488V39.152C670.109 39.8107 670.005 40.4173 669.797 40.972C669.589 41.5093 669.243 42.0293 668.757 42.532L667.925 41.882C668.515 41.2233 668.844 40.5127 668.913 39.75H667.899V37.488H670.109ZM677.478 56.182C675.363 56.182 673.691 55.6013 672.46 54.44L673.032 53.218C673.725 53.79 674.419 54.1973 675.112 54.44C675.823 54.6827 676.637 54.804 677.556 54.804C678.631 54.804 679.445 54.622 680 54.258C680.572 53.8767 680.858 53.3307 680.858 52.62C680.858 52.0307 680.667 51.5713 680.286 51.242C679.922 50.8953 679.315 50.618 678.466 50.41L676.256 49.916C675.216 49.6733 674.393 49.24 673.786 48.616C673.197 47.992 672.902 47.264 672.902 46.432C672.902 45.288 673.335 44.378 674.202 43.702C675.086 43.0087 676.256 42.662 677.712 42.662C678.631 42.662 679.48 42.8093 680.26 43.104C681.057 43.3987 681.716 43.8233 682.236 44.378L681.638 45.6C680.442 44.56 679.133 44.04 677.712 44.04C676.707 44.04 675.927 44.2393 675.372 44.638C674.817 45.0367 674.54 45.5913 674.54 46.302C674.54 46.8913 674.713 47.368 675.06 47.732C675.424 48.096 675.979 48.3647 676.724 48.538L678.96 49.084C681.3 49.604 682.47 50.7567 682.47 52.542C682.47 53.634 682.019 54.518 681.118 55.194C680.217 55.8527 679.003 56.182 677.478 56.182ZM703.765 42.974V56H702.179V53.504C701.797 54.3707 701.217 55.038 700.437 55.506C699.674 55.9567 698.755 56.182 697.681 56.182C696.519 56.182 695.497 55.9133 694.613 55.376C693.746 54.8213 693.07 54.0413 692.585 53.036C692.117 52.0133 691.883 50.826 691.883 49.474C691.883 48.122 692.125 46.9347 692.611 45.912C693.096 44.872 693.772 44.0747 694.639 43.52C695.523 42.948 696.537 42.662 697.681 42.662C698.738 42.662 699.648 42.8873 700.411 43.338C701.191 43.7887 701.78 44.4473 702.179 45.314V42.974H703.765ZM697.915 54.778C699.267 54.778 700.315 54.31 701.061 53.374C701.806 52.438 702.179 51.1207 702.179 49.422C702.179 47.706 701.806 46.38 701.061 45.444C700.315 44.508 699.258 44.04 697.889 44.04C696.519 44.04 695.453 44.5253 694.691 45.496C693.928 46.4493 693.547 47.7753 693.547 49.474C693.547 51.1553 693.928 52.464 694.691 53.4C695.453 54.3187 696.528 54.778 697.915 54.778ZM722.116 42.662C724.993 42.662 726.432 44.3433 726.432 47.706V56H724.846V47.81C724.846 46.4927 724.612 45.5393 724.144 44.95C723.676 44.3433 722.931 44.04 721.908 44.04C720.712 44.04 719.767 44.4387 719.074 45.236C718.398 46.0333 718.06 47.1167 718.06 48.486V56H716.474V47.81C716.474 46.4927 716.231 45.5393 715.746 44.95C715.278 44.3433 714.533 44.04 713.51 44.04C712.331 44.04 711.387 44.4387 710.676 45.236C709.983 46.0333 709.636 47.1167 709.636 48.486V56H708.076V46.588C708.076 45.236 708.007 44.0313 707.868 42.974H709.376L709.584 45.314C709.948 44.4473 710.485 43.7887 711.196 43.338C711.924 42.8873 712.765 42.662 713.718 42.662C715.815 42.662 717.159 43.5113 717.748 45.21C718.112 44.4127 718.675 43.7887 719.438 43.338C720.218 42.8873 721.111 42.662 722.116 42.662ZM741.724 42.974V56H740.138V53.504C739.756 54.3707 739.176 55.038 738.396 55.506C737.633 55.9567 736.714 56.182 735.64 56.182C734.478 56.182 733.456 55.9133 732.572 55.376C731.705 54.8213 731.029 54.0413 730.544 53.036C730.076 52.0133 729.842 50.826 729.842 49.474C729.842 48.122 730.084 46.9347 730.57 45.912C731.055 44.872 731.731 44.0747 732.598 43.52C733.482 42.948 734.496 42.662 735.64 42.662C736.697 42.662 737.607 42.8873 738.37 43.338C739.15 43.7887 739.739 44.4473 740.138 45.314V42.974H741.724ZM735.874 54.778C737.226 54.778 738.274 54.31 739.02 53.374C739.765 52.438 740.138 51.1207 740.138 49.422C740.138 47.706 739.765 46.38 739.02 45.444C738.274 44.508 737.217 44.04 735.848 44.04C734.478 44.04 733.412 44.5253 732.65 45.496C731.887 46.4493 731.506 47.7753 731.506 49.474C731.506 51.1553 731.887 52.464 732.65 53.4C733.412 54.3187 734.487 54.778 735.874 54.778ZM756.071 54.7V56H745.203V54.908L753.861 44.248H745.515V42.974H755.785V44.17L747.231 54.7H756.071ZM759.416 42.974H760.976V56H759.416V42.974ZM761.288 37.592V39.62H759.182V37.592H761.288ZM771.39 42.662C774.527 42.662 776.096 44.3433 776.096 47.706V56H774.51V47.81C774.51 46.51 774.241 45.5567 773.704 44.95C773.184 44.3433 772.36 44.04 771.234 44.04C769.934 44.04 768.885 44.4387 768.088 45.236C767.29 46.0333 766.892 47.108 766.892 48.46V56H765.332V46.588C765.332 45.236 765.262 44.0313 765.124 42.974H766.632L766.84 45.366C767.238 44.482 767.836 43.8147 768.634 43.364C769.431 42.896 770.35 42.662 771.39 42.662ZM791.517 42.974V56.052C791.517 57.9413 791.049 59.3713 790.113 60.342C789.177 61.3127 787.799 61.798 785.979 61.798C784.038 61.798 782.348 61.33 780.909 60.394L781.221 59.016C782.07 59.5187 782.85 59.874 783.561 60.082C784.272 60.29 785.086 60.394 786.005 60.394C787.305 60.394 788.284 60.0387 788.943 59.328C789.619 58.6173 789.957 57.5773 789.957 56.208V52.854C789.558 53.738 788.969 54.4227 788.189 54.908C787.409 55.376 786.473 55.61 785.381 55.61C784.237 55.61 783.223 55.3413 782.339 54.804C781.455 54.2493 780.762 53.4867 780.259 52.516C779.774 51.528 779.531 50.4013 779.531 49.136C779.531 47.8533 779.774 46.7267 780.259 45.756C780.762 44.768 781.455 44.0053 782.339 43.468C783.223 42.9307 784.237 42.662 785.381 42.662C786.473 42.662 787.4 42.8873 788.163 43.338C788.943 43.7887 789.532 44.4473 789.931 45.314V42.974H791.517ZM785.589 54.18C786.941 54.18 787.998 53.7293 788.761 52.828C789.541 51.9267 789.931 50.696 789.931 49.136C789.931 47.5587 789.541 46.3193 788.761 45.418C787.998 44.4993 786.941 44.04 785.589 44.04C784.22 44.04 783.145 44.4993 782.365 45.418C781.585 46.3193 781.195 47.5587 781.195 49.136C781.195 50.7133 781.585 51.9527 782.365 52.854C783.145 53.738 784.22 54.18 785.589 54.18ZM52.7323 80.248V87.996C52.7323 89.036 52.9316 89.7553 53.3303 90.154C53.7289 90.5527 54.3183 90.752 55.0983 90.752C55.5836 90.752 56.0516 90.674 56.5023 90.518V91.948C55.9476 92.0867 55.3843 92.156 54.8123 92.156C53.6683 92.156 52.7669 91.8353 52.1083 91.194C51.4669 90.5527 51.1463 89.5907 51.1463 88.308V80.248H48.5723V78.974H51.1463V75.516L52.7323 74.918V78.974H56.5803V80.248H52.7323ZM64.456 92.182C63.26 92.182 62.2027 91.9047 61.284 91.35C60.3827 90.7953 59.6807 90.0067 59.178 88.984C58.6927 87.9613 58.45 86.774 58.45 85.422C58.45 84.07 58.6927 82.8827 59.178 81.86C59.6807 80.8373 60.3827 80.0487 61.284 79.494C62.2027 78.9393 63.26 78.662 64.456 78.662C65.6347 78.662 66.6747 78.9393 67.576 79.494C68.4774 80.0487 69.1707 80.8373 69.656 81.86C70.1587 82.8827 70.41 84.07 70.41 85.422C70.41 86.774 70.1587 87.9613 69.656 88.984C69.1707 90.0067 68.4774 90.7953 67.576 91.35C66.6747 91.9047 65.6347 92.182 64.456 92.182ZM64.43 90.778C65.8167 90.778 66.8827 90.3187 67.628 89.4C68.3907 88.464 68.772 87.138 68.772 85.422C68.772 83.7233 68.3907 82.406 67.628 81.47C66.8654 80.5167 65.808 80.04 64.456 80.04C63.0867 80.04 62.0207 80.5167 61.258 81.47C60.4954 82.406 60.114 83.7233 60.114 85.422C60.114 87.1553 60.4867 88.4813 61.232 89.4C61.9774 90.3187 63.0434 90.778 64.43 90.778ZM84.7466 92.182C82.6319 92.182 80.9593 91.6013 79.7286 90.44L80.3006 89.218C80.9939 89.79 81.6873 90.1973 82.3806 90.44C83.0913 90.6827 83.9059 90.804 84.8246 90.804C85.8993 90.804 86.7139 90.622 87.2686 90.258C87.8406 89.8767 88.1266 89.3307 88.1266 88.62C88.1266 88.0307 87.9359 87.5713 87.5546 87.242C87.1906 86.8953 86.5839 86.618 85.7346 86.41L83.5246 85.916C82.4846 85.6733 81.6613 85.24 81.0546 84.616C80.4653 83.992 80.1706 83.264 80.1706 82.432C80.1706 81.288 80.6039 80.378 81.4706 79.702C82.3546 79.0087 83.5246 78.662 84.9806 78.662C85.8993 78.662 86.7486 78.8093 87.5286 79.104C88.3259 79.3987 88.9846 79.8233 89.5046 80.378L88.9066 81.6C87.7106 80.56 86.4019 80.04 84.9806 80.04C83.9753 80.04 83.1953 80.2393 82.6406 80.638C82.0859 81.0367 81.8086 81.5913 81.8086 82.302C81.8086 82.8913 81.9819 83.368 82.3286 83.732C82.6926 84.096 83.2473 84.3647 83.9926 84.538L86.2286 85.084C88.5686 85.604 89.7386 86.7567 89.7386 88.542C89.7386 89.634 89.2879 90.518 88.3866 91.194C87.4853 91.8527 86.2719 92.182 84.7466 92.182ZM94.1882 85.292V85.37C94.1882 87.1207 94.5869 88.464 95.3842 89.4C96.1989 90.3187 97.3776 90.778 98.9202 90.778C100.48 90.778 101.91 90.2407 103.21 89.166L103.834 90.414C103.262 90.9513 102.534 91.3847 101.65 91.714C100.766 92.026 99.8562 92.182 98.9202 92.182C96.9442 92.182 95.3842 91.584 94.2402 90.388C93.0962 89.192 92.5242 87.5453 92.5242 85.448C92.5242 84.1133 92.7756 82.9347 93.2782 81.912C93.7982 80.872 94.5176 80.0747 95.4362 79.52C96.3549 78.948 97.4122 78.662 98.6082 78.662C100.324 78.662 101.659 79.2167 102.612 80.326C103.583 81.4353 104.068 82.978 104.068 84.954V85.292H94.1882ZM98.6082 79.962C97.4122 79.962 96.4416 80.326 95.6962 81.054C94.9509 81.7647 94.4829 82.77 94.2922 84.07H102.56C102.456 82.7353 102.066 81.7213 101.39 81.028C100.714 80.3173 99.7869 79.962 98.6082 79.962ZM108.305 85.292V85.37C108.305 87.1207 108.704 88.464 109.501 89.4C110.316 90.3187 111.495 90.778 113.037 90.778C114.597 90.778 116.027 90.2407 117.327 89.166L117.951 90.414C117.379 90.9513 116.651 91.3847 115.767 91.714C114.883 92.026 113.973 92.182 113.037 92.182C111.061 92.182 109.501 91.584 108.357 90.388C107.213 89.192 106.641 87.5453 106.641 85.448C106.641 84.1133 106.893 82.9347 107.395 81.912C107.915 80.872 108.635 80.0747 109.553 79.52C110.472 78.948 111.529 78.662 112.725 78.662C114.441 78.662 115.776 79.2167 116.729 80.326C117.7 81.4353 118.185 82.978 118.185 84.954V85.292H108.305ZM112.725 79.962C111.529 79.962 110.559 80.326 109.813 81.054C109.068 81.7647 108.6 82.77 108.409 84.07H116.677C116.573 82.7353 116.183 81.7213 115.507 81.028C114.831 80.3173 113.904 79.962 112.725 79.962ZM134.276 78.662C137.413 78.662 138.982 80.3433 138.982 83.706V92H137.396V83.81C137.396 82.51 137.127 81.5567 136.59 80.95C136.07 80.3433 135.246 80.04 134.12 80.04C132.82 80.04 131.771 80.4387 130.974 81.236C130.176 82.0333 129.778 83.108 129.778 84.46V92H128.218V72.864H129.778V81.236C130.194 80.3867 130.792 79.7453 131.572 79.312C132.352 78.8787 133.253 78.662 134.276 78.662ZM148.423 92.182C147.227 92.182 146.169 91.9047 145.251 91.35C144.349 90.7953 143.647 90.0067 143.145 88.984C142.659 87.9613 142.417 86.774 142.417 85.422C142.417 84.07 142.659 82.8827 143.145 81.86C143.647 80.8373 144.349 80.0487 145.251 79.494C146.169 78.9393 147.227 78.662 148.423 78.662C149.601 78.662 150.641 78.9393 151.543 79.494C152.444 80.0487 153.137 80.8373 153.623 81.86C154.125 82.8827 154.377 84.07 154.377 85.422C154.377 86.774 154.125 87.9613 153.623 88.984C153.137 90.0067 152.444 90.7953 151.543 91.35C150.641 91.9047 149.601 92.182 148.423 92.182ZM148.397 90.778C149.783 90.778 150.849 90.3187 151.595 89.4C152.357 88.464 152.739 87.138 152.739 85.422C152.739 83.7233 152.357 82.406 151.595 81.47C150.832 80.5167 149.775 80.04 148.423 80.04C147.053 80.04 145.987 80.5167 145.225 81.47C144.462 82.406 144.081 83.7233 144.081 85.422C144.081 87.1553 144.453 88.4813 145.199 89.4C145.944 90.3187 147.01 90.778 148.397 90.778ZM177.117 78.974L172.385 92H170.747L166.795 81.002L162.817 92H161.153L156.447 78.974H158.137L161.985 90.102L166.041 78.974H167.627L171.553 90.102L175.505 78.974H177.117ZM189.004 80.248V87.996C189.004 89.036 189.203 89.7553 189.602 90.154C190 90.5527 190.59 90.752 191.37 90.752C191.855 90.752 192.323 90.674 192.774 90.518V91.948C192.219 92.0867 191.656 92.156 191.084 92.156C189.94 92.156 189.038 91.8353 188.38 91.194C187.738 90.5527 187.418 89.5907 187.418 88.308V80.248H184.844V78.974H187.418V75.516L189.004 74.918V78.974H192.852V80.248H189.004ZM201.612 78.662C204.749 78.662 206.318 80.3433 206.318 83.706V92H204.732V83.81C204.732 82.51 204.463 81.5567 203.926 80.95C203.406 80.3433 202.582 80.04 201.456 80.04C200.156 80.04 199.107 80.4387 198.31 81.236C197.512 82.0333 197.114 83.108 197.114 84.46V92H195.554V72.864H197.114V81.236C197.53 80.3867 198.128 79.7453 198.908 79.312C199.688 78.8787 200.589 78.662 201.612 78.662ZM211.417 85.292V85.37C211.417 87.1207 211.815 88.464 212.613 89.4C213.427 90.3187 214.606 90.778 216.149 90.778C217.709 90.778 219.139 90.2407 220.439 89.166L221.063 90.414C220.491 90.9513 219.763 91.3847 218.879 91.714C217.995 92.026 217.085 92.182 216.149 92.182C214.173 92.182 212.613 91.584 211.469 90.388C210.325 89.192 209.753 87.5453 209.753 85.448C209.753 84.1133 210.004 82.9347 210.507 81.912C211.027 80.872 211.746 80.0747 212.665 79.52C213.583 78.948 214.641 78.662 215.837 78.662C217.553 78.662 218.887 79.2167 219.841 80.326C220.811 81.4353 221.297 82.978 221.297 84.954V85.292H211.417ZM215.837 79.962C214.641 79.962 213.67 80.326 212.925 81.054C212.179 81.7647 211.711 82.77 211.521 84.07H219.789C219.685 82.7353 219.295 81.7213 218.619 81.028C217.943 80.3173 217.015 79.962 215.837 79.962ZM224.702 78.974H226.262V92H224.702V78.974ZM226.574 73.592V75.62H224.468V73.592H226.574ZM236.234 78.662C236.667 78.662 237.049 78.6967 237.378 78.766L237.3 80.196C236.971 80.1267 236.572 80.092 236.104 80.092C234.787 80.092 233.799 80.5167 233.14 81.366C232.499 82.198 232.178 83.1947 232.178 84.356V92H230.618V82.588C230.618 81.236 230.549 80.0313 230.41 78.974H231.918L232.126 81.392C232.455 80.508 232.984 79.832 233.712 79.364C234.457 78.896 235.298 78.662 236.234 78.662ZM250.547 92.182C248.433 92.182 246.76 91.6013 245.529 90.44L246.101 89.218C246.795 89.79 247.488 90.1973 248.181 90.44C248.892 90.6827 249.707 90.804 250.625 90.804C251.7 90.804 252.515 90.622 253.069 90.258C253.641 89.8767 253.927 89.3307 253.927 88.62C253.927 88.0307 253.737 87.5713 253.355 87.242C252.991 86.8953 252.385 86.618 251.535 86.41L249.325 85.916C248.285 85.6733 247.462 85.24 246.855 84.616C246.266 83.992 245.971 83.264 245.971 82.432C245.971 81.288 246.405 80.378 247.271 79.702C248.155 79.0087 249.325 78.662 250.781 78.662C251.7 78.662 252.549 78.8093 253.329 79.104C254.127 79.3987 254.785 79.8233 255.305 80.378L254.707 81.6C253.511 80.56 252.203 80.04 250.781 80.04C249.776 80.04 248.996 80.2393 248.441 80.638C247.887 81.0367 247.609 81.5913 247.609 82.302C247.609 82.8913 247.783 83.368 248.129 83.732C248.493 84.096 249.048 84.3647 249.793 84.538L252.029 85.084C254.369 85.604 255.539 86.7567 255.539 88.542C255.539 89.634 255.089 90.518 254.187 91.194C253.286 91.8527 252.073 92.182 250.547 92.182ZM269.953 78.974L263.817 93.352C263.21 94.7733 262.448 95.8133 261.529 96.472C260.628 97.148 259.492 97.6247 258.123 97.902L257.811 96.654C259.059 96.3593 259.995 95.978 260.619 95.51C261.26 95.042 261.798 94.3053 262.231 93.3L262.777 92.026L257.213 78.974H258.903L263.609 90.414L268.341 78.974H269.953ZM276.547 92.182C274.433 92.182 272.76 91.6013 271.529 90.44L272.101 89.218C272.795 89.79 273.488 90.1973 274.181 90.44C274.892 90.6827 275.707 90.804 276.625 90.804C277.7 90.804 278.515 90.622 279.069 90.258C279.641 89.8767 279.927 89.3307 279.927 88.62C279.927 88.0307 279.737 87.5713 279.355 87.242C278.991 86.8953 278.385 86.618 277.535 86.41L275.325 85.916C274.285 85.6733 273.462 85.24 272.855 84.616C272.266 83.992 271.971 83.264 271.971 82.432C271.971 81.288 272.405 80.378 273.271 79.702C274.155 79.0087 275.325 78.662 276.781 78.662C277.7 78.662 278.549 78.8093 279.329 79.104C280.127 79.3987 280.785 79.8233 281.305 80.378L280.707 81.6C279.511 80.56 278.203 80.04 276.781 80.04C275.776 80.04 274.996 80.2393 274.441 80.638C273.887 81.0367 273.609 81.5913 273.609 82.302C273.609 82.8913 273.783 83.368 274.129 83.732C274.493 84.096 275.048 84.3647 275.793 84.538L278.029 85.084C280.369 85.604 281.539 86.7567 281.539 88.542C281.539 89.634 281.089 90.518 280.187 91.194C279.286 91.8527 278.073 92.182 276.547 92.182ZM287.24 80.248V87.996C287.24 89.036 287.439 89.7553 287.838 90.154C288.237 90.5527 288.826 90.752 289.606 90.752C290.091 90.752 290.559 90.674 291.01 90.518V91.948C290.455 92.0867 289.892 92.156 289.32 92.156C288.176 92.156 287.275 91.8353 286.616 91.194C285.975 90.5527 285.654 89.5907 285.654 88.308V80.248H283.08V78.974H285.654V75.516L287.24 74.918V78.974H291.088V80.248H287.24ZM294.622 85.292V85.37C294.622 87.1207 295.021 88.464 295.818 89.4C296.633 90.3187 297.811 90.778 299.354 90.778C300.914 90.778 302.344 90.2407 303.644 89.166L304.268 90.414C303.696 90.9513 302.968 91.3847 302.084 91.714C301.2 92.026 300.29 92.182 299.354 92.182C297.378 92.182 295.818 91.584 294.674 90.388C293.53 89.192 292.958 87.5453 292.958 85.448C292.958 84.1133 293.209 82.9347 293.712 81.912C294.232 80.872 294.951 80.0747 295.87 79.52C296.789 78.948 297.846 78.662 299.042 78.662C300.758 78.662 302.093 79.2167 303.046 80.326C304.017 81.4353 304.502 82.978 304.502 84.954V85.292H294.622ZM299.042 79.962C297.846 79.962 296.875 80.326 296.13 81.054C295.385 81.7647 294.917 82.77 294.726 84.07H302.994C302.89 82.7353 302.5 81.7213 301.824 81.028C301.148 80.3173 300.221 79.962 299.042 79.962ZM321.947 78.662C324.824 78.662 326.263 80.3433 326.263 83.706V92H324.677V83.81C324.677 82.4927 324.443 81.5393 323.975 80.95C323.507 80.3433 322.762 80.04 321.739 80.04C320.543 80.04 319.598 80.4387 318.905 81.236C318.229 82.0333 317.891 83.1167 317.891 84.486V92H316.305V83.81C316.305 82.4927 316.062 81.5393 315.577 80.95C315.109 80.3433 314.364 80.04 313.341 80.04C312.162 80.04 311.218 80.4387 310.507 81.236C309.814 82.0333 309.467 83.1167 309.467 84.486V92H307.907V82.588C307.907 81.236 307.838 80.0313 307.699 78.974H309.207L309.415 81.314C309.779 80.4473 310.316 79.7887 311.027 79.338C311.755 78.8873 312.596 78.662 313.549 78.662C315.646 78.662 316.99 79.5113 317.579 81.21C317.943 80.4127 318.506 79.7887 319.269 79.338C320.049 78.8873 320.942 78.662 321.947 78.662ZM356.528 78.974L351.796 92H350.158L346.206 81.002L342.228 92H340.564L335.858 78.974H337.548L341.396 90.102L345.452 78.974H347.038L350.964 90.102L354.916 78.974H356.528ZM364.624 92.182C363.428 92.182 362.371 91.9047 361.452 91.35C360.551 90.7953 359.849 90.0067 359.346 88.984C358.861 87.9613 358.618 86.774 358.618 85.422C358.618 84.07 358.861 82.8827 359.346 81.86C359.849 80.8373 360.551 80.0487 361.452 79.494C362.371 78.9393 363.428 78.662 364.624 78.662C365.803 78.662 366.843 78.9393 367.744 79.494C368.645 80.0487 369.339 80.8373 369.824 81.86C370.327 82.8827 370.578 84.07 370.578 85.422C370.578 86.774 370.327 87.9613 369.824 88.984C369.339 90.0067 368.645 90.7953 367.744 91.35C366.843 91.9047 365.803 92.182 364.624 92.182ZM364.598 90.778C365.985 90.778 367.051 90.3187 367.796 89.4C368.559 88.464 368.94 87.138 368.94 85.422C368.94 83.7233 368.559 82.406 367.796 81.47C367.033 80.5167 365.976 80.04 364.624 80.04C363.255 80.04 362.189 80.5167 361.426 81.47C360.663 82.406 360.282 83.7233 360.282 85.422C360.282 87.1553 360.655 88.4813 361.4 89.4C362.145 90.3187 363.211 90.778 364.598 90.778ZM379.666 78.662C380.099 78.662 380.48 78.6967 380.81 78.766L380.732 80.196C380.402 80.1267 380.004 80.092 379.536 80.092C378.218 80.092 377.23 80.5167 376.572 81.366C375.93 82.198 375.61 83.1947 375.61 84.356V92H374.05V82.588C374.05 81.236 373.98 80.0313 373.842 78.974H375.35L375.558 81.392C375.887 80.508 376.416 79.832 377.144 79.364C377.889 78.896 378.73 78.662 379.666 78.662ZM391.85 92L384.674 85.656V92H383.114V72.864H384.674V85.032L391.226 78.974H393.28L386.468 85.24L394.008 92H391.85ZM400.047 92.182C397.933 92.182 396.26 91.6013 395.029 90.44L395.601 89.218C396.295 89.79 396.988 90.1973 397.681 90.44C398.392 90.6827 399.207 90.804 400.125 90.804C401.2 90.804 402.015 90.622 402.569 90.258C403.141 89.8767 403.427 89.3307 403.427 88.62C403.427 88.0307 403.237 87.5713 402.855 87.242C402.491 86.8953 401.885 86.618 401.035 86.41L398.825 85.916C397.785 85.6733 396.962 85.24 396.355 84.616C395.766 83.992 395.471 83.264 395.471 82.432C395.471 81.288 395.905 80.378 396.771 79.702C397.655 79.0087 398.825 78.662 400.281 78.662C401.2 78.662 402.049 78.8093 402.829 79.104C403.627 79.3987 404.285 79.8233 404.805 80.378L404.207 81.6C403.011 80.56 401.703 80.04 400.281 80.04C399.276 80.04 398.496 80.2393 397.941 80.638C397.387 81.0367 397.109 81.5913 397.109 82.302C397.109 82.8913 397.283 83.368 397.629 83.732C397.993 84.096 398.548 84.3647 399.293 84.538L401.529 85.084C403.869 85.604 405.039 86.7567 405.039 88.542C405.039 89.634 404.589 90.518 403.687 91.194C402.786 91.8527 401.573 92.182 400.047 92.182ZM434.68 78.974L429.948 92H428.31L424.358 81.002L420.38 92H418.716L414.01 78.974H415.7L419.548 90.102L423.604 78.974H425.19L429.116 90.102L433.068 78.974H434.68ZM437.729 78.974H439.289V92H437.729V78.974ZM439.601 73.592V75.62H437.495V73.592H439.601ZM445.855 80.248V87.996C445.855 89.036 446.055 89.7553 446.453 90.154C446.852 90.5527 447.441 90.752 448.221 90.752C448.707 90.752 449.175 90.674 449.625 90.518V91.948C449.071 92.0867 448.507 92.156 447.935 92.156C446.791 92.156 445.89 91.8353 445.231 91.194C444.59 90.5527 444.269 89.5907 444.269 88.308V80.248H441.695V78.974H444.269V75.516L445.855 74.918V78.974H449.703V80.248H445.855ZM458.463 78.662C461.6 78.662 463.169 80.3433 463.169 83.706V92H461.583V83.81C461.583 82.51 461.314 81.5567 460.777 80.95C460.257 80.3433 459.434 80.04 458.307 80.04C457.007 80.04 455.958 80.4387 455.161 81.236C454.364 82.0333 453.965 83.108 453.965 84.46V92H452.405V72.864H453.965V81.236C454.381 80.3867 454.979 79.7453 455.759 79.312C456.539 78.8787 457.44 78.662 458.463 78.662ZM476.273 80.248V87.996C476.273 89.036 476.473 89.7553 476.871 90.154C477.27 90.5527 477.859 90.752 478.639 90.752C479.125 90.752 479.593 90.674 480.043 90.518V91.948C479.489 92.0867 478.925 92.156 478.353 92.156C477.209 92.156 476.308 91.8353 475.649 91.194C475.008 90.5527 474.687 89.5907 474.687 88.308V80.248H472.113V78.974H474.687V75.516L476.273 74.918V78.974H480.121V80.248H476.273ZM488.881 78.662C492.018 78.662 493.587 80.3433 493.587 83.706V92H492.001V83.81C492.001 82.51 491.732 81.5567 491.195 80.95C490.675 80.3433 489.852 80.04 488.725 80.04C487.425 80.04 486.376 80.4387 485.579 81.236C484.782 82.0333 484.383 83.108 484.383 84.46V92H482.823V72.864H484.383V81.236C484.799 80.3867 485.397 79.7453 486.177 79.312C486.957 78.8787 487.858 78.662 488.881 78.662ZM498.686 85.292V85.37C498.686 87.1207 499.085 88.464 499.882 89.4C500.697 90.3187 501.876 90.778 503.418 90.778C504.978 90.778 506.408 90.2407 507.708 89.166L508.332 90.414C507.76 90.9513 507.032 91.3847 506.148 91.714C505.264 92.026 504.354 92.182 503.418 92.182C501.442 92.182 499.882 91.584 498.738 90.388C497.594 89.192 497.022 87.5453 497.022 85.448C497.022 84.1133 497.274 82.9347 497.776 81.912C498.296 80.872 499.016 80.0747 499.934 79.52C500.853 78.948 501.91 78.662 503.106 78.662C504.822 78.662 506.157 79.2167 507.11 80.326C508.081 81.4353 508.566 82.978 508.566 84.954V85.292H498.686ZM503.106 79.962C501.91 79.962 500.94 80.326 500.194 81.054C499.449 81.7647 498.981 82.77 498.79 84.07H507.058C506.954 82.7353 506.564 81.7213 505.888 81.028C505.212 80.3173 504.285 79.962 503.106 79.962ZM511.971 78.974H513.531V92H511.971V78.974ZM513.843 73.592V75.62H511.737V73.592H513.843ZM523.503 78.662C523.937 78.662 524.318 78.6967 524.647 78.766L524.569 80.196C524.24 80.1267 523.841 80.092 523.373 80.092C522.056 80.092 521.068 80.5167 520.409 81.366C519.768 82.198 519.447 83.1947 519.447 84.356V92H517.887V82.588C517.887 81.236 517.818 80.0313 517.679 78.974H519.187L519.395 81.392C519.725 80.508 520.253 79.832 520.981 79.364C521.727 78.896 522.567 78.662 523.503 78.662ZM544.629 78.974V92H543.043V89.504C542.662 90.3707 542.081 91.038 541.301 91.506C540.538 91.9567 539.62 92.182 538.545 92.182C537.384 92.182 536.361 91.9133 535.477 91.376C534.61 90.8213 533.934 90.0413 533.449 89.036C532.981 88.0133 532.747 86.826 532.747 85.474C532.747 84.122 532.99 82.9347 533.475 81.912C533.96 80.872 534.636 80.0747 535.503 79.52C536.387 78.948 537.401 78.662 538.545 78.662C539.602 78.662 540.512 78.8873 541.275 79.338C542.055 79.7887 542.644 80.4473 543.043 81.314V78.974H544.629ZM538.779 90.778C540.131 90.778 541.18 90.31 541.925 89.374C542.67 88.438 543.043 87.1207 543.043 85.422C543.043 83.706 542.67 82.38 541.925 81.444C541.18 80.508 540.122 80.04 538.753 80.04C537.384 80.04 536.318 80.5253 535.555 81.496C534.792 82.4493 534.411 83.7753 534.411 85.474C534.411 87.1553 534.792 88.464 535.555 89.4C536.318 90.3187 537.392 90.778 538.779 90.778ZM554.556 78.662C554.99 78.662 555.371 78.6967 555.7 78.766L555.622 80.196C555.293 80.1267 554.894 80.092 554.426 80.092C553.109 80.092 552.121 80.5167 551.462 81.366C550.821 82.198 550.5 83.1947 550.5 84.356V92H548.94V82.588C548.94 81.236 548.871 80.0313 548.732 78.974H550.24L550.448 81.392C550.778 80.508 551.306 79.832 552.034 79.364C552.78 78.896 553.62 78.662 554.556 78.662ZM572.045 78.662C574.922 78.662 576.361 80.3433 576.361 83.706V92H574.775V83.81C574.775 82.4927 574.541 81.5393 574.073 80.95C573.605 80.3433 572.859 80.04 571.837 80.04C570.641 80.04 569.696 80.4387 569.003 81.236C568.327 82.0333 567.989 83.1167 567.989 84.486V92H566.403V83.81C566.403 82.4927 566.16 81.5393 565.675 80.95C565.207 80.3433 564.461 80.04 563.439 80.04C562.26 80.04 561.315 80.4387 560.605 81.236C559.911 82.0333 559.565 83.1167 559.565 84.486V92H558.005V82.588C558.005 81.236 557.935 80.0313 557.797 78.974H559.305L559.513 81.314C559.877 80.4473 560.414 79.7887 561.125 79.338C561.853 78.8873 562.693 78.662 563.647 78.662C565.744 78.662 567.087 79.5113 567.677 81.21C568.041 80.4127 568.604 79.7887 569.367 79.338C570.147 78.8873 571.039 78.662 572.045 78.662ZM591.652 78.974L585.516 93.352C584.91 94.7733 584.147 95.8133 583.228 96.472C582.327 97.148 581.192 97.6247 579.822 97.902L579.51 96.654C580.758 96.3593 581.694 95.978 582.318 95.51C582.96 95.042 583.497 94.3053 583.93 93.3L584.476 92.026L578.912 78.974H580.602L585.308 90.414L590.04 78.974H591.652ZM606.063 92.182C604.867 92.182 603.81 91.9047 602.891 91.35C601.99 90.7953 601.288 90.0067 600.785 88.984C600.3 87.9613 600.057 86.774 600.057 85.422C600.057 84.07 600.3 82.8827 600.785 81.86C601.288 80.8373 601.99 80.0487 602.891 79.494C603.81 78.9393 604.867 78.662 606.063 78.662C607.242 78.662 608.282 78.9393 609.183 79.494C610.085 80.0487 610.778 80.8373 611.263 81.86C611.766 82.8827 612.017 84.07 612.017 85.422C612.017 86.774 611.766 87.9613 611.263 88.984C610.778 90.0067 610.085 90.7953 609.183 91.35C608.282 91.9047 607.242 92.182 606.063 92.182ZM606.037 90.778C607.424 90.778 608.49 90.3187 609.235 89.4C609.998 88.464 610.379 87.138 610.379 85.422C610.379 83.7233 609.998 82.406 609.235 81.47C608.473 80.5167 607.415 80.04 606.063 80.04C604.694 80.04 603.628 80.5167 602.865 81.47C602.103 82.406 601.721 83.7233 601.721 85.422C601.721 87.1553 602.094 88.4813 602.839 89.4C603.585 90.3187 604.651 90.778 606.037 90.778ZM619.987 74.19C619.242 74.19 618.67 74.3893 618.271 74.788C617.872 75.1867 617.673 75.8973 617.673 76.92V78.974H621.027V80.248H617.673V92H616.087V80.248H613.539V78.974H616.087V76.634C616.087 75.334 616.408 74.3633 617.049 73.722C617.69 73.0807 618.574 72.76 619.701 72.76C620.221 72.76 620.758 72.8293 621.313 72.968V74.398C620.845 74.2593 620.403 74.19 619.987 74.19ZM635.824 92.182C634.593 92.182 633.518 91.9047 632.6 91.35C631.681 90.7953 630.97 90.0153 630.468 89.01C629.965 87.9873 629.714 86.8087 629.714 85.474C629.714 84.122 629.965 82.9347 630.468 81.912C630.97 80.872 631.69 80.0747 632.626 79.52C633.562 78.948 634.645 78.662 635.876 78.662C636.76 78.662 637.6 78.818 638.398 79.13C639.212 79.4247 639.88 79.8407 640.4 80.378L639.776 81.626C639.1 81.0713 638.45 80.6727 637.826 80.43C637.219 80.17 636.586 80.04 635.928 80.04C634.524 80.04 633.414 80.5253 632.6 81.496C631.785 82.4493 631.378 83.7753 631.378 85.474C631.378 87.138 631.776 88.438 632.574 89.374C633.388 90.31 634.506 90.778 635.928 90.778C636.586 90.778 637.219 90.6567 637.826 90.414C638.45 90.154 639.1 89.7553 639.776 89.218L640.4 90.44C639.845 90.9773 639.152 91.402 638.32 91.714C637.505 92.026 636.673 92.182 635.824 92.182ZM648.908 78.662C649.341 78.662 649.722 78.6967 650.052 78.766L649.974 80.196C649.644 80.1267 649.246 80.092 648.778 80.092C647.46 80.092 646.472 80.5167 645.814 81.366C645.172 82.198 644.852 83.1947 644.852 84.356V92H643.292V82.588C643.292 81.236 643.222 80.0313 643.084 78.974H644.592L644.8 81.392C645.129 80.508 645.658 79.832 646.386 79.364C647.131 78.896 647.972 78.662 648.908 78.662ZM652.934 85.292V85.37C652.934 87.1207 653.333 88.464 654.13 89.4C654.945 90.3187 656.124 90.778 657.666 90.778C659.226 90.778 660.656 90.2407 661.956 89.166L662.58 90.414C662.008 90.9513 661.28 91.3847 660.396 91.714C659.512 92.026 658.602 92.182 657.666 92.182C655.69 92.182 654.13 91.584 652.986 90.388C651.842 89.192 651.27 87.5453 651.27 85.448C651.27 84.1133 651.522 82.9347 652.024 81.912C652.544 80.872 653.264 80.0747 654.182 79.52C655.101 78.948 656.158 78.662 657.354 78.662C659.07 78.662 660.405 79.2167 661.358 80.326C662.329 81.4353 662.814 82.978 662.814 84.954V85.292H652.934ZM657.354 79.962C656.158 79.962 655.188 80.326 654.442 81.054C653.697 81.7647 653.229 82.77 653.038 84.07H661.306C661.202 82.7353 660.812 81.7213 660.136 81.028C659.46 80.3173 658.533 79.962 657.354 79.962ZM677.27 78.974V92H675.684V89.504C675.302 90.3707 674.722 91.038 673.942 91.506C673.179 91.9567 672.26 92.182 671.186 92.182C670.024 92.182 669.002 91.9133 668.118 91.376C667.251 90.8213 666.575 90.0413 666.09 89.036C665.622 88.0133 665.388 86.826 665.388 85.474C665.388 84.122 665.63 82.9347 666.116 81.912C666.601 80.872 667.277 80.0747 668.144 79.52C669.028 78.948 670.042 78.662 671.186 78.662C672.243 78.662 673.153 78.8873 673.916 79.338C674.696 79.7887 675.285 80.4473 675.684 81.314V78.974H677.27ZM671.42 90.778C672.772 90.778 673.82 90.31 674.566 89.374C675.311 88.438 675.684 87.1207 675.684 85.422C675.684 83.706 675.311 82.38 674.566 81.444C673.82 80.508 672.763 80.04 671.394 80.04C670.024 80.04 668.958 80.5253 668.196 81.496C667.433 82.4493 667.052 83.7753 667.052 85.474C667.052 87.1553 667.433 88.464 668.196 89.4C668.958 90.3187 670.033 90.778 671.42 90.778ZM683.791 80.248V87.996C683.791 89.036 683.99 89.7553 684.389 90.154C684.788 90.5527 685.377 90.752 686.157 90.752C686.642 90.752 687.11 90.674 687.561 90.518V91.948C687.006 92.0867 686.443 92.156 685.871 92.156C684.727 92.156 683.826 91.8353 683.167 91.194C682.526 90.5527 682.205 89.5907 682.205 88.308V80.248H679.631V78.974H682.205V75.516L683.791 74.918V78.974H687.639V80.248H683.791ZM690.341 78.974H691.901V92H690.341V78.974ZM692.213 73.592V75.62H690.107V73.592H692.213ZM707.307 78.974L701.717 92H700.079L694.567 78.974H696.257L700.963 90.414L705.695 78.974H707.307ZM710.622 85.292V85.37C710.622 87.1207 711.021 88.464 711.818 89.4C712.633 90.3187 713.811 90.778 715.354 90.778C716.914 90.778 718.344 90.2407 719.644 89.166L720.268 90.414C719.696 90.9513 718.968 91.3847 718.084 91.714C717.2 92.026 716.29 92.182 715.354 92.182C713.378 92.182 711.818 91.584 710.674 90.388C709.53 89.192 708.958 87.5453 708.958 85.448C708.958 84.1133 709.209 82.9347 709.712 81.912C710.232 80.872 710.951 80.0747 711.87 79.52C712.789 78.948 713.846 78.662 715.042 78.662C716.758 78.662 718.093 79.2167 719.046 80.326C720.017 81.4353 720.502 82.978 720.502 84.954V85.292H710.622ZM715.042 79.962C713.846 79.962 712.875 80.326 712.13 81.054C711.385 81.7647 710.917 82.77 710.726 84.07H718.994C718.89 82.7353 718.5 81.7213 717.824 81.028C717.148 80.3173 716.221 79.962 715.042 79.962ZM728.145 92.182C726.03 92.182 724.358 91.6013 723.127 90.44L723.699 89.218C724.392 89.79 725.086 90.1973 725.779 90.44C726.49 90.6827 727.304 90.804 728.223 90.804C729.298 90.804 730.112 90.622 730.667 90.258C731.239 89.8767 731.525 89.3307 731.525 88.62C731.525 88.0307 731.334 87.5713 730.953 87.242C730.589 86.8953 729.982 86.618 729.133 86.41L726.923 85.916C725.883 85.6733 725.06 85.24 724.453 84.616C723.864 83.992 723.569 83.264 723.569 82.432C723.569 81.288 724.002 80.378 724.869 79.702C725.753 79.0087 726.923 78.662 728.379 78.662C729.298 78.662 730.147 78.8093 730.927 79.104C731.724 79.3987 732.383 79.8233 732.903 80.378L732.305 81.6C731.109 80.56 729.8 80.04 728.379 80.04C727.374 80.04 726.594 80.2393 726.039 80.638C725.484 81.0367 725.207 81.5913 725.207 82.302C725.207 82.8913 725.38 83.368 725.727 83.732C726.091 84.096 726.646 84.3647 727.391 84.538L729.627 85.084C731.967 85.604 733.137 86.7567 733.137 88.542C733.137 89.634 732.686 90.518 731.785 91.194C730.884 91.8527 729.67 92.182 728.145 92.182ZM737.814 73.488V75.152C737.814 75.8107 737.71 76.4173 737.502 76.972C737.294 77.5093 736.947 78.0293 736.462 78.532L735.63 77.882C736.219 77.2233 736.548 76.5127 736.618 75.75H735.604V73.488H737.814ZM741.87 73.488V75.152C741.87 75.8107 741.766 76.4173 741.558 76.972C741.35 77.5093 741.003 78.0293 740.518 78.532L739.686 77.882C740.275 77.2233 740.604 76.5127 740.674 75.75H739.66V73.488H741.87Z" fill="#1B2750"/>
</svg>
