<svg width="123" height="59" viewBox="0 0 123 59" fill="none" xmlns="http://www.w3.org/2000/svg">
<path d="M7.00888 14.528C5.59021 14.528 4.35288 14.24 3.29688 13.664C2.24088 13.088 1.42488 12.2827 0.848875 11.248C0.283542 10.2133 0.000875056 9.01867 0.000875056 7.664C0.000875056 6.20267 0.304875 4.93333 0.912875 3.856C1.52088 2.77867 2.35288 1.952 3.40887 1.376C4.47554 0.799999 5.68088 0.511999 7.02488 0.511999C8.42221 0.511999 9.62221 0.783999 10.6249 1.328C11.6275 1.86133 12.3849 2.58133 12.8969 3.488C13.4195 4.39467 13.6809 5.392 13.6809 6.48C13.6809 7.46133 13.5315 8.288 13.2329 8.96C12.9342 9.632 12.5342 10.1387 12.0329 10.48C11.5315 10.8107 10.9769 10.976 10.3689 10.976C9.79288 10.976 9.33421 10.8533 8.99288 10.608C8.65154 10.3627 8.44888 10.0213 8.38488 9.584H8.35288C7.74488 10.512 6.95021 10.976 5.96888 10.976C5.20088 10.976 4.59288 10.72 4.14488 10.208C3.70754 9.68533 3.48888 8.98133 3.48888 8.096C3.48888 7.33867 3.63288 6.64533 3.92088 6.016C4.20888 5.376 4.60888 4.86933 5.12088 4.496C5.64354 4.12267 6.23554 3.936 6.89688 3.936C7.35554 3.936 7.76088 4.04267 8.11287 4.256C8.46488 4.45867 8.70488 4.736 8.83288 5.088H8.86488L9.04088 4.096H10.5289L9.80888 8.112C9.76621 8.336 9.74488 8.56533 9.74488 8.8C9.74488 9.14133 9.81421 9.392 9.95288 9.552C10.1022 9.70133 10.3315 9.776 10.6409 9.776C10.8862 9.776 11.1315 9.66933 11.3769 9.456C11.6329 9.232 11.8462 8.87467 12.0169 8.384C12.1875 7.89333 12.2729 7.25867 12.2729 6.48C12.2729 5.59467 12.0755 4.8 11.6809 4.096C11.2862 3.392 10.6942 2.832 9.90488 2.416C9.11554 2 8.15554 1.792 7.02488 1.792C5.96888 1.792 5.01954 2.02667 4.17688 2.496C3.34488 2.95467 2.68888 3.62667 2.20888 4.512C1.72888 5.39733 1.48888 6.448 1.48888 7.664C1.48888 8.784 1.70754 9.76533 2.14488 10.608C2.59288 11.44 3.22754 12.0853 4.04888 12.544C4.88088 13.0027 5.86754 13.232 7.00888 13.232C7.85154 13.232 8.57154 13.12 9.16888 12.896C9.77688 12.6827 10.2302 12.384 10.5289 12H12.4649C12.0275 12.768 11.3342 13.3813 10.3849 13.84C9.44621 14.2987 8.32088 14.528 7.00888 14.528ZM6.28888 9.776C6.75821 9.776 7.16354 9.632 7.50488 9.344C7.84621 9.056 8.10221 8.68267 8.27288 8.224C8.45421 7.76533 8.54488 7.28 8.54488 6.768C8.54488 6.23467 8.41688 5.82933 8.16088 5.552C7.91554 5.27467 7.57421 5.136 7.13688 5.136C6.68888 5.136 6.29954 5.28 5.96888 5.568C5.64888 5.856 5.40354 6.22933 5.23288 6.688C5.06221 7.136 4.97688 7.6 4.97688 8.08C4.97688 8.60267 5.09421 9.01867 5.32888 9.328C5.57421 9.62667 5.89421 9.776 6.28888 9.776ZM20.0133 0.608H22.0773V12H20.0133V0.608ZM32.0485 3.936L28.5125 12H26.7685L23.2805 3.936H25.3765L27.6965 9.728L30.0645 3.936H32.0485ZM40.736 3.92L36.976 12.544C36.5493 13.5467 36.0053 14.2773 35.344 14.736C34.6827 15.1947 33.8667 15.4987 32.896 15.648L32.448 14.112C33.2053 13.9413 33.7707 13.7227 34.144 13.456C34.528 13.2 34.8373 12.816 35.072 12.304L35.328 11.712L31.968 3.92H34.064L36.384 9.728L38.752 3.92H40.736ZM51.4781 12.144C50.3581 12.144 49.3768 11.904 48.5341 11.424C47.7021 10.944 47.0621 10.2667 46.6141 9.392C46.1661 8.50667 45.9421 7.472 45.9421 6.288C45.9421 5.11467 46.1661 4.09067 46.6141 3.216C47.0621 2.33067 47.7021 1.65333 48.5341 1.184C49.3768 0.704 50.3581 0.464 51.4781 0.464C52.2461 0.464 52.9661 0.586666 53.6381 0.832C54.3208 1.06667 54.8861 1.39733 55.3341 1.824L54.6621 3.328C54.1501 2.912 53.6381 2.61333 53.1261 2.432C52.6248 2.24 52.0861 2.144 51.5101 2.144C50.4115 2.144 49.5581 2.50133 48.9501 3.216C48.3528 3.93067 48.0541 4.95467 48.0541 6.288C48.0541 7.632 48.3528 8.66667 48.9501 9.392C49.5475 10.1067 50.4008 10.464 51.5101 10.464C52.0861 10.464 52.6248 10.3733 53.1261 10.192C53.6381 10 54.1501 9.696 54.6621 9.28L55.3341 10.784C54.8861 11.2107 54.3208 11.5467 53.6381 11.792C52.9661 12.0267 52.2461 12.144 51.4781 12.144ZM60.627 12.128C59.8057 12.128 59.0803 11.9573 58.451 11.616C57.8323 11.2747 57.3523 10.7893 57.011 10.16C56.6803 9.52 56.515 8.77333 56.515 7.92C56.515 7.06667 56.6803 6.32533 57.011 5.696C57.3523 5.056 57.8323 4.56533 58.451 4.224C59.0803 3.88267 59.8057 3.712 60.627 3.712C61.4377 3.712 62.1523 3.88267 62.771 4.224C63.3897 4.56533 63.8643 5.056 64.195 5.696C64.5363 6.32533 64.707 7.06667 64.707 7.92C64.707 8.77333 64.5363 9.52 64.195 10.16C63.8643 10.7893 63.3897 11.2747 62.771 11.616C62.1523 11.9573 61.4377 12.128 60.627 12.128ZM60.611 10.56C61.2937 10.56 61.811 10.3413 62.163 9.904C62.5257 9.456 62.707 8.79467 62.707 7.92C62.707 7.056 62.5257 6.4 62.163 5.952C61.8003 5.49333 61.2883 5.264 60.627 5.264C59.955 5.264 59.4377 5.49333 59.075 5.952C58.7123 6.4 58.531 7.056 58.531 7.92C58.531 8.79467 58.707 9.456 59.059 9.904C59.4217 10.3413 59.939 10.56 60.611 10.56ZM69.3918 12.128C67.9304 12.128 66.7678 11.7867 65.9038 11.104L66.4638 9.696C67.3278 10.336 68.3144 10.656 69.4238 10.656C69.9038 10.656 70.2718 10.576 70.5278 10.416C70.7944 10.256 70.9278 10.032 70.9278 9.744C70.9278 9.49867 70.8371 9.30667 70.6558 9.168C70.4744 9.01867 70.1651 8.89067 69.7278 8.784L68.3838 8.48C66.9118 8.16 66.1758 7.408 66.1758 6.224C66.1758 5.73333 66.3144 5.30133 66.5918 4.928C66.8691 4.544 67.2584 4.24533 67.7598 4.032C68.2611 3.81867 68.8424 3.712 69.5038 3.712C70.0798 3.712 70.6344 3.80267 71.1678 3.984C71.7011 4.15467 72.1704 4.40533 72.5758 4.736L71.9838 6.096C71.1731 5.49867 70.3411 5.2 69.4878 5.2C69.0291 5.2 68.6718 5.28533 68.4158 5.456C68.1598 5.62667 68.0318 5.86133 68.0318 6.16C68.0318 6.39467 68.1064 6.58133 68.2558 6.72C68.4158 6.85867 68.6824 6.976 69.0558 7.072L70.4318 7.376C71.2318 7.55733 71.8131 7.84 72.1758 8.224C72.5491 8.59733 72.7358 9.088 72.7358 9.696C72.7358 10.4427 72.4371 11.0347 71.8398 11.472C71.2424 11.9093 70.4264 12.128 69.3918 12.128ZM83.9834 3.712C84.9007 3.712 85.5834 3.98933 86.0314 4.544C86.4794 5.088 86.7034 5.92 86.7034 7.04V12H84.7034V7.104C84.7034 6.464 84.5967 6.00533 84.3834 5.728C84.1807 5.44 83.8394 5.296 83.3594 5.296C82.8047 5.296 82.3674 5.49333 82.0474 5.888C81.738 6.272 81.5834 6.80533 81.5834 7.488V12H79.5834V7.104C79.5834 6.47467 79.4714 6.016 79.2474 5.728C79.034 5.44 78.6927 5.296 78.2234 5.296C77.6687 5.296 77.2314 5.49333 76.9114 5.888C76.5914 6.272 76.4314 6.80533 76.4314 7.488V12H74.4474V6.208C74.4474 5.35467 74.4047 4.592 74.3194 3.92H76.1914L76.3354 5.2C76.57 4.72 76.906 4.352 77.3434 4.096C77.7914 3.84 78.3034 3.712 78.8794 3.712C80.1167 3.712 80.922 4.224 81.2954 5.248C81.5514 4.768 81.914 4.39467 82.3834 4.128C82.8634 3.85067 83.3967 3.712 83.9834 3.712ZM95.91 8.064H90.342C90.3847 8.928 90.598 9.568 90.982 9.984C91.3767 10.3893 91.958 10.592 92.726 10.592C93.6113 10.592 94.4327 10.304 95.19 9.728L95.766 11.104C95.382 11.4133 94.9073 11.664 94.342 11.856C93.7873 12.0373 93.222 12.128 92.646 12.128C91.3233 12.128 90.2833 11.7547 89.526 11.008C88.7687 10.2613 88.39 9.23733 88.39 7.936C88.39 7.11467 88.5553 6.384 88.886 5.744C89.2167 5.104 89.6807 4.608 90.278 4.256C90.8753 3.89333 91.5527 3.712 92.31 3.712C93.4193 3.712 94.294 4.07467 94.934 4.8C95.5847 5.51467 95.91 6.50133 95.91 7.76V8.064ZM92.358 5.152C91.8247 5.152 91.3873 5.312 91.046 5.632C90.7153 5.94133 90.502 6.39467 90.406 6.992H94.166C94.102 6.384 93.9153 5.92533 93.606 5.616C93.3073 5.30667 92.8913 5.152 92.358 5.152ZM100.038 5.424V9.04C100.038 9.98933 100.481 10.464 101.366 10.464C101.612 10.464 101.878 10.4213 102.166 10.336V11.92C101.814 12.048 101.388 12.112 100.886 12.112C99.9689 12.112 99.2649 11.856 98.7743 11.344C98.2836 10.832 98.0383 10.096 98.0383 9.136V5.424H96.4863V3.92H98.0383V1.952L100.038 1.28V3.92H102.182V5.424H100.038ZM103.557 3.92H105.541V12H103.557V3.92ZM105.653 0.256V2.224H103.429V0.256H105.653ZM111.393 12.128C110.55 12.128 109.819 11.9573 109.201 11.616C108.582 11.2747 108.107 10.7947 107.777 10.176C107.446 9.54667 107.281 8.81067 107.281 7.968C107.281 7.12533 107.451 6.384 107.793 5.744C108.145 5.104 108.635 4.608 109.265 4.256C109.905 3.89333 110.641 3.712 111.473 3.712C112.049 3.712 112.603 3.80267 113.137 3.984C113.681 4.16533 114.113 4.416 114.433 4.736L113.873 6.144C113.531 5.86667 113.169 5.65867 112.785 5.52C112.401 5.37067 112.022 5.296 111.649 5.296C110.923 5.296 110.358 5.52533 109.953 5.984C109.547 6.432 109.345 7.08267 109.345 7.936C109.345 8.78933 109.542 9.44 109.937 9.888C110.342 10.336 110.913 10.56 111.649 10.56C112.022 10.56 112.401 10.4853 112.785 10.336C113.169 10.1867 113.531 9.97333 113.873 9.696L114.433 11.104C114.091 11.424 113.649 11.6747 113.105 11.856C112.561 12.0373 111.99 12.128 111.393 12.128ZM118.736 12.128C117.274 12.128 116.112 11.7867 115.248 11.104L115.808 9.696C116.672 10.336 117.658 10.656 118.768 10.656C119.248 10.656 119.616 10.576 119.872 10.416C120.138 10.256 120.272 10.032 120.272 9.744C120.272 9.49867 120.181 9.30667 120 9.168C119.818 9.01867 119.509 8.89067 119.072 8.784L117.728 8.48C116.256 8.16 115.52 7.408 115.52 6.224C115.52 5.73333 115.658 5.30133 115.936 4.928C116.213 4.544 116.602 4.24533 117.104 4.032C117.605 3.81867 118.186 3.712 118.848 3.712C119.424 3.712 119.978 3.80267 120.512 3.984C121.045 4.15467 121.514 4.40533 121.92 4.736L121.328 6.096C120.517 5.49867 119.685 5.2 118.832 5.2C118.373 5.2 118.016 5.28533 117.76 5.456C117.504 5.62667 117.376 5.86133 117.376 6.16C117.376 6.39467 117.45 6.58133 117.6 6.72C117.76 6.85867 118.026 6.976 118.4 7.072L119.776 7.376C120.576 7.55733 121.157 7.84 121.52 8.224C121.893 8.59733 122.08 9.088 122.08 9.696C122.08 10.4427 121.781 11.0347 121.184 11.472C120.586 11.9093 119.77 12.128 118.736 12.128Z" fill="#1B2750"/>
<circle cx="80" cy="52" r="7" fill="#E8E8E8"/>
</svg>
