
<svg width="164" height="56" viewBox="0 0 164 56" fill="none" xmlns="http://www.w3.org/2000/svg">
<g filter="url(#filter0_d)">
<rect x="8" y="6" width="148" height="40" rx="5" fill="#FAFAFA"/>
<rect x="8.5" y="6.5" width="147" height="39" rx="4.5" stroke="#D1D1D1"/>
</g>
<path d="M35.25 27.495H30.03L28.95 30H27L31.83 19.32H33.405L38.25 30H36.315L35.25 27.495ZM34.605 25.995L32.64 21.42L30.675 25.995H34.605ZM46.515 18.96V30H44.67V28.785C44.44 29.205 44.11 29.535 43.68 29.775C43.25 30.005 42.76 30.12 42.21 30.12C41.56 30.12 40.98 29.955 40.47 29.625C39.96 29.295 39.56 28.83 39.27 28.23C38.99 27.62 38.85 26.925 38.85 26.145C38.85 25.365 38.99 24.68 39.27 24.09C39.55 23.5 39.945 23.045 40.455 22.725C40.965 22.395 41.55 22.23 42.21 22.23C42.75 22.23 43.23 22.345 43.65 22.575C44.08 22.795 44.41 23.11 44.64 23.52V18.96H46.515ZM42.705 28.65C43.325 28.65 43.805 28.435 44.145 28.005C44.495 27.575 44.67 26.965 44.67 26.175C44.67 25.385 44.5 24.775 44.16 24.345C43.82 23.915 43.34 23.7 42.72 23.7C42.09 23.7 41.6 23.915 41.25 24.345C40.91 24.765 40.74 25.365 40.74 26.145C40.74 26.935 40.91 27.55 41.25 27.99C41.6 28.43 42.085 28.65 42.705 28.65ZM55.8021 18.96V30H53.9571V28.785C53.7271 29.205 53.3971 29.535 52.9671 29.775C52.5371 30.005 52.0471 30.12 51.4971 30.12C50.8471 30.12 50.2671 29.955 49.7571 29.625C49.2471 29.295 48.8471 28.83 48.5571 28.23C48.2771 27.62 48.1371 26.925 48.1371 26.145C48.1371 25.365 48.2771 24.68 48.5571 24.09C48.8371 23.5 49.2321 23.045 49.7421 22.725C50.2521 22.395 50.8371 22.23 51.4971 22.23C52.0371 22.23 52.5171 22.345 52.9371 22.575C53.3671 22.795 53.6971 23.11 53.9271 23.52V18.96H55.8021ZM51.9921 28.65C52.6121 28.65 53.0921 28.435 53.4321 28.005C53.7821 27.575 53.9571 26.965 53.9571 26.175C53.9571 25.385 53.7871 24.775 53.4471 24.345C53.1071 23.915 52.6271 23.7 52.0071 23.7C51.3771 23.7 50.8871 23.915 50.5371 24.345C50.1971 24.765 50.0271 25.365 50.0271 26.145C50.0271 26.935 50.1971 27.55 50.5371 27.99C50.8871 28.43 51.3721 28.65 51.9921 28.65ZM64.3454 23.835V27.225C64.3454 28.115 64.7604 28.56 65.5904 28.56C65.8204 28.56 66.0704 28.52 66.3404 28.44V29.925C66.0104 30.045 65.6104 30.105 65.1404 30.105C64.2804 30.105 63.6204 29.865 63.1604 29.385C62.7004 28.905 62.4704 28.215 62.4704 27.315V23.835H61.0154V22.425H62.4704V20.58L64.3454 19.95V22.425H66.3554V23.835H64.3454ZM71.079 30.12C70.309 30.12 69.629 29.96 69.039 29.64C68.459 29.32 68.009 28.865 67.689 28.275C67.379 27.675 67.224 26.975 67.224 26.175C67.224 25.375 67.379 24.68 67.689 24.09C68.009 23.49 68.459 23.03 69.039 22.71C69.629 22.39 70.309 22.23 71.079 22.23C71.839 22.23 72.509 22.39 73.089 22.71C73.669 23.03 74.114 23.49 74.424 24.09C74.744 24.68 74.904 25.375 74.904 26.175C74.904 26.975 74.744 27.675 74.424 28.275C74.114 28.865 73.669 29.32 73.089 29.64C72.509 29.96 71.839 30.12 71.079 30.12ZM71.064 28.65C71.704 28.65 72.189 28.445 72.519 28.035C72.859 27.615 73.029 26.995 73.029 26.175C73.029 25.365 72.859 24.75 72.519 24.33C72.179 23.9 71.699 23.685 71.079 23.685C70.449 23.685 69.964 23.9 69.624 24.33C69.284 24.75 69.114 25.365 69.114 26.175C69.114 26.995 69.279 27.615 69.609 28.035C69.949 28.445 70.434 28.65 71.064 28.65ZM85.6172 30.135C84.5672 30.135 83.6472 29.91 82.8572 29.46C82.0772 29.01 81.4772 28.375 81.0572 27.555C80.6372 26.725 80.4272 25.755 80.4272 24.645C80.4272 23.545 80.6372 22.585 81.0572 21.765C81.4772 20.935 82.0772 20.3 82.8572 19.86C83.6472 19.41 84.5672 19.185 85.6172 19.185C86.3372 19.185 87.0122 19.3 87.6422 19.53C88.2822 19.75 88.8122 20.06 89.2322 20.46L88.6022 21.87C88.1222 21.48 87.6422 21.2 87.1622 21.03C86.6922 20.85 86.1872 20.76 85.6472 20.76C84.6172 20.76 83.8172 21.095 83.2472 21.765C82.6872 22.435 82.4072 23.395 82.4072 24.645C82.4072 25.905 82.6872 26.875 83.2472 27.555C83.8072 28.225 84.6072 28.56 85.6472 28.56C86.1872 28.56 86.6922 28.475 87.1622 28.305C87.6422 28.125 88.1222 27.84 88.6022 27.45L89.2322 28.86C88.8122 29.26 88.2822 29.575 87.6422 29.805C87.0122 30.025 86.3372 30.135 85.6172 30.135ZM98.0043 22.425V30H96.1593V28.785C95.9293 29.205 95.5993 29.535 95.1693 29.775C94.7393 30.005 94.2493 30.12 93.6993 30.12C93.0393 30.12 92.4543 29.96 91.9443 29.64C91.4343 29.32 91.0393 28.865 90.7593 28.275C90.4793 27.685 90.3393 27 90.3393 26.22C90.3393 25.44 90.4793 24.75 90.7593 24.15C91.0493 23.54 91.4493 23.07 91.9593 22.74C92.4693 22.4 93.0493 22.23 93.6993 22.23C94.2493 22.23 94.7393 22.35 95.1693 22.59C95.5993 22.82 95.9293 23.145 96.1593 23.565V22.425H98.0043ZM94.2093 28.65C94.8293 28.65 95.3093 28.435 95.6493 28.005C95.9893 27.575 96.1593 26.97 96.1593 26.19C96.1593 25.39 95.9893 24.775 95.6493 24.345C95.3093 23.915 94.8243 23.7 94.1943 23.7C93.5743 23.7 93.0893 23.925 92.7393 24.375C92.3993 24.815 92.2293 25.43 92.2293 26.22C92.2293 27 92.3993 27.6 92.7393 28.02C93.0893 28.44 93.5793 28.65 94.2093 28.65ZM104.126 22.245C104.416 22.245 104.666 22.285 104.876 22.365L104.861 24.075C104.541 23.945 104.211 23.88 103.871 23.88C103.231 23.88 102.741 24.065 102.401 24.435C102.071 24.805 101.906 25.295 101.906 25.905V30H100.046V24.57C100.046 23.77 100.006 23.055 99.9264 22.425H101.681L101.831 23.76C102.021 23.27 102.321 22.895 102.731 22.635C103.141 22.375 103.606 22.245 104.126 22.245ZM108.994 23.835V27.225C108.994 28.115 109.409 28.56 110.239 28.56C110.469 28.56 110.719 28.52 110.989 28.44V29.925C110.659 30.045 110.259 30.105 109.789 30.105C108.929 30.105 108.269 29.865 107.809 29.385C107.349 28.905 107.119 28.215 107.119 27.315V23.835H105.664V22.425H107.119V20.58L108.994 19.95V22.425H111.004V23.835H108.994Z" fill="#1A64F2"/>
<path d="M136.354 25.3536C136.549 25.1583 136.549 24.8417 136.354 24.6464L133.172 21.4645C132.976 21.2692 132.66 21.2692 132.464 21.4645C132.269 21.6597 132.269 21.9763 132.464 22.1716L135.293 25L132.464 27.8284C132.269 28.0237 132.269 28.3403 132.464 28.5355C132.66 28.7308 132.976 28.7308 133.172 28.5355L136.354 25.3536ZM119 25.5H136V24.5H119V25.5Z" fill="#1A64F2"/>
<defs>
<filter id="filter0_d" x="0" y="0" width="164" height="56" filterUnits="userSpaceOnUse" color-interpolation-filters="sRGB">
<feFlood flood-opacity="0" result="BackgroundImageFix"/>
<feColorMatrix in="SourceAlpha" type="matrix" values="0 0 0 0 0 0 0 0 0 0 0 0 0 0 0 0 0 0 127 0"/>
<feOffset dy="2"/>
<feGaussianBlur stdDeviation="4"/>
<feColorMatrix type="matrix" values="0 0 0 0 0 0 0 0 0 0 0 0 0 0 0 0 0 0 0.06 0"/>
<feBlend mode="normal" in2="BackgroundImageFix" result="effect1_dropShadow"/>
<feBlend mode="normal" in="SourceGraphic" in2="effect1_dropShadow" result="shape"/>
</filter>
</defs>
</svg>
